<?xml version="1.0" encoding="UTF-8" standalone="no"?>
<!-- Created with Inkscape (http://www.inkscape.org/) -->

<svg
   xmlns:dc="http://purl.org/dc/elements/1.1/"
   xmlns:cc="http://creativecommons.org/ns#"
   xmlns:rdf="http://www.w3.org/1999/02/22-rdf-syntax-ns#"
   xmlns:svg="http://www.w3.org/2000/svg"
   xmlns="http://www.w3.org/2000/svg"
   xmlns:sodipodi="http://sodipodi.sourceforge.net/DTD/sodipodi-0.dtd"
   xmlns:inkscape="http://www.inkscape.org/namespaces/inkscape"
   id="svg2"
   version="1.1"
   inkscape:version="0.48.2 r9819"
   width="483"
   height="360"
   sodipodi:docname="more-sodium.svg"
   inkscape:export-filename="/home/chris/rejected/more-sodium-2.png"
   inkscape:export-xdpi="372.75"
   inkscape:export-ydpi="372.75">
  <metadata
     id="metadata8">
    <rdf:RDF>
      <cc:Work
         rdf:about="">
        <dc:format>image/svg+xml</dc:format>
        <dc:type
           rdf:resource="http://purl.org/dc/dcmitype/StillImage" />
        <dc:title />
      </cc:Work>
    </rdf:RDF>
  </metadata>
  <defs
     id="defs6" />
  <sodipodi:namedview
     pagecolor="#ffffff"
     bordercolor="#666666"
     borderopacity="1"
     objecttolerance="10"
     gridtolerance="10"
     guidetolerance="10"
     inkscape:pageopacity="0"
     inkscape:pageshadow="2"
     inkscape:window-width="1280"
     inkscape:window-height="776"
     id="namedview4"
     showgrid="false"
     borderlayer="true"
     inkscape:showpageshadow="false"
     inkscape:zoom="1.8101934"
     inkscape:cx="244.83569"
     inkscape:cy="164.35552"
     inkscape:window-x="0"
     inkscape:window-y="24"
     inkscape:window-maximized="1"
     inkscape:current-layer="layer2" />
  <g
     inkscape:groupmode="layer"
     id="layer2"
     inkscape:label="more-sodium"
     style="display:inline">
    <path
       id="path3669"
       style="fill:#000000;fill-opacity:1;stroke:none"
       d="m 248.84169,178.45144 c 1.12977,0.006 1.77919,0.13132 1.766,1.5089 -0.16973,17.72302 -0.35263,40.36183 -0.009,63.44696 0.34341,23.08512 1.21313,46.61656 2.06999,66.66416 0.0293,0.68509 -0.50222,1.41476 -2.09051,1.40579 -29.10544,-0.16445 -64.31558,-0.783 -99.81682,0.0654 -35.78016,0.85506 -70.454249,0.4938 -95.607288,0.85726 -2.8804,0.0416 -3.76467,-0.89725 -3.849902,-3.18369 -0.743674,-19.94985 -1.918861,-47.25213 -3.021616,-72.48654 -1.102755,-25.2344 -2.154361,-48.75409 -2.317367,-58.27555 -0.04257,-2.48658 -0.164674,-2.15556 2.191634,-2.19631 20.802755,-0.35975 56.086059,0.57891 93.480799,0.95477 37.39474,0.37586 76.89697,1.09119 107.2043,1.23885 l -2.2e-4,0 z m -11.68597,-14.20621 c 1.17018,0.0286 1.15899,0.26938 1.83528,0.97722 2.98264,3.12178 4.14524,4.09194 8.17531,8.43751 1.97777,2.13261 1.43528,2.42154 -1.6446,2.35964 -6.70087,-0.13468 -48.71367,-1.75437 -92.48957,-1.96764 -44.16372,-0.21516 -90.841382,-1.2365 -107.650784,-0.91636 -1.385449,0.0264 -2.427656,-0.82729 -3.289195,-1.81144 -1.832898,-2.09376 -3.421086,-4.08739 -5.863347,-6.53073 -2.143344,-2.14429 -2.710519,-2.34167 1.287076,-2.24047 32.580636,0.82482 72.41654,1.07273 109.07094,1.1228 36.6544,0.0501 70.22512,0.0714 90.56889,0.56947 z M 41.567797,174.56568 c 0.66648,0.68995 1.390825,1.54856 1.406249,2.30005 0.460846,22.45316 1.365133,33.76575 2.628641,65.62368 1.263509,31.85792 1.265475,42.9794 2.49583,64.19226 0.05452,0.93998 -1.050132,1.89997 -1.882945,1.00106 -3.53548,-3.81607 -6.721972,-5.85266 -8.89036,-7.46027 -0.828633,-0.61433 -1.489671,-1.19174 -1.477754,-2.24047 0.013,-1.14399 -0.837865,-30.79302 -1.539158,-61.67025 -0.701292,-30.87723 -1.009955,-62.99363 -1.404433,-69.0395 -0.100308,-1.53735 0.138145,-1.86221 1.155985,-0.73887 2.766224,3.05293 5.436857,5.8883 7.507945,8.03231 z M 32.79661,160.26483 c -4.242263,0.0576 -2.915491,2.05028 -2.860169,5.14831 0.381356,21.35593 0.928536,32.84626 1.738408,65.00629 0.809872,32.16002 0.166333,41.03846 1.503117,68.32528 0.08634,1.76229 0.694971,1.87042 1.668433,2.66949 4.559456,3.74261 10.974425,9.12409 14.300847,12.68008 0.714206,0.76349 2.489415,1.31208 3.575212,1.38241 8.050962,0.5215 45.715317,-0.14909 87.811502,-0.4166 42.09619,-0.26751 88.6242,-0.13195 114.40248,-0.15543 1.21651,-10e-4 1.0964,-0.50053 1.21558,-1.35858 0.26752,-1.92605 -1.08546,-34.2441 -1.92435,-66.82469 -0.8389,-32.5806 -1.16368,-65.42374 -1.12796,-68.39998 0.0128,-1.06833 -0.56946,-2.27387 -1.26897,-3.10636 -5.05645,-6.01768 -8.94584,-8.74468 -13.05402,-13.30714 -0.37037,-0.41133 -0.88748,-0.22869 -2.44938,-0.22803 -33.26054,0.0142 -71.6108,-0.8817 -104.4783,-0.8817 -33.721361,0 -65.844329,-0.98936 -99.05243,-0.53335 z"
       sodipodi:nodetypes="cssssssssssscccsssssssssccsssssssssccsssssssssssssssc"
       inkscape:connector-curvature="0" />
    <g
       transform="matrix(0.99991349,0.01315346,-0.01315346,0.99991349,2.7307162,-0.8763971)"
       id="use3815">
      <path
         id="path3143"
         style="fill:#000000;fill-opacity:1;fill-rule:evenodd;stroke:none;display:inline"
         d="m 74.080973,222.45689 c 0,2.63464 -1.588582,4.77042 -3.548196,4.77042 -1.959615,0 -3.548197,-2.13578 -3.548197,-4.77042 0,-2.63464 1.588582,-4.77042 3.548197,-4.77042 1.959614,0 3.548196,2.13578 3.548196,4.77042 z m -1.802701,-10e-6 c 0,1.57835 -0.781484,2.85784 -1.745493,2.85784 -0.964011,0 -1.745495,-1.27949 -1.745495,-2.85784 0,-1.57834 0.781484,-2.85783 1.745495,-2.85783 0.964009,0 1.745493,1.27949 1.745493,2.85783 z"
         inkscape:connector-curvature="0" />
      <path
         style="fill:#000000;fill-opacity:1;stroke:none;display:inline"
         d="m 77.747866,212.6143 0.0686,5.68449 c 0,0 4.909744,-1.64168 4.930164,2.20028 l 0.02582,4.85783 c 0.0042,0.78907 0.928151,1.11164 0.928151,1.11164 l 0.0041,0.6932 -3.565304,-0.0169 0.01686,-0.6932 c 0,0 1.015282,-0.0548 1.011222,-1.09479 l -0.01685,-4.316 c -0.0073,-1.86788 -3.301634,-1.85601 -3.301634,0 l 0,4.316 c 0,0.89643 0.856648,1.09479 0.856648,1.09479 l 4e-6,0.6932 -3.421802,0 0.0337,-0.6932 c 0,0 0.959495,-0.19538 0.962356,-1.09479 l 0.03371,-10.59614 c 0.0017,-0.53766 -0.374921,-0.40651 -0.609626,-0.31169 l -0.322267,-1.20562 1.807715,-0.62256 0.558435,-0.007 -2e-6,4.1e-4 0,5e-5 z"
         id="path3145"
         sodipodi:nodetypes="ccssccccssssccccsscccccc"
         inkscape:connector-curvature="0" />
      <path
         sodipodi:type="arc"
         style="fill:#000000;fill-opacity:1;stroke:none"
         id="path3147"
         sodipodi:cx="63.114407"
         sodipodi:cy="214.2267"
         sodipodi:rx="1.4300847"
         sodipodi:ry="1.4300847"
         d="m 64.544491,214.2267 a 1.4300847,1.4300847 0 1 1 -2.860169,0 1.4300847,1.4300847 0 1 1 2.860169,0 z" />
      <path
         style="fill:#000000;fill-opacity:1;stroke:none"
         d="m 65.688567,216.99155 0,1.69227 c 0,0 -1.644597,0.14302 -1.644597,1.38242 l 0,7.80587 c 0,1.75412 -0.450691,3.21801 -1.739931,3.27728 -2.073623,0.0953 -3.622882,-1.43008 -3.170022,-2.47881 0.466745,-1.08088 1.275764,-0.88058 1.857417,-0.19716 0.939413,1.10376 1.531892,0.001 1.531892,-1.57711 l 0,-6.7824 c 0,-1.52617 -2.149923,-1.43009 -2.149923,-1.43009 l 0,-1.69227 5.315164,0 0,0 0,0 z"
         id="path3149"
         sodipodi:nodetypes="ccsssssssccccc"
         inkscape:connector-curvature="0" />
      <path
         sodipodi:nodetypes="ccssccccssssccccsscccccc"
         id="path3151"
         d="m 87.080489,217.42468 0.0686,0.87411 c 0,0 4.909744,-1.64168 4.930164,2.20028 l 0.02582,4.85783 c 0.0042,0.78907 0.928151,1.11164 0.928151,1.11164 l 0.0041,0.6932 -3.565304,-0.0169 0.01686,-0.6932 c 0,0 1.015282,-0.0548 1.011222,-1.09479 l -0.01685,-4.316 c -0.0073,-1.86788 -3.301634,-1.85601 -3.301634,0 l 0,4.316 c 0,0.89643 0.856648,1.09479 0.856648,1.09479 l 4e-6,0.6932 -3.421802,0 0.0337,-0.6932 c 0,0 0.957116,-0.19539 0.962356,-1.09479 l 0.03371,-5.78576 c 0.0031,-0.53765 -0.374921,-0.40651 -0.609626,-0.31169 l -0.322267,-1.20562 1.807715,-0.62256 0.558435,-0.007 -2e-6,4.1e-4 0,5e-5 z"
         style="fill:#000000;fill-opacity:1;stroke:none;display:inline"
         inkscape:connector-curvature="0" />
      <path
         style="fill:#000000;fill-opacity:1;stroke:none"
         d="m 101.02113,217.87195 0,2.57914 -0.79262,0 c 0,0 -1.146523,-1.34892 -2.262486,-1.39266 -0.808978,-0.0317 -1.498302,0.14725 -1.538975,0.87607 -0.04362,0.78154 0.940462,1.51885 2.546603,2.29996 1.462598,0.71129 2.000658,1.55707 2.047478,2.78224 0.0596,1.56063 -1.342174,2.3662 -2.892704,2.37183 -1.717286,0.007 -2.301885,-0.71067 -2.466776,-0.0547 l -0.653701,0 0,-3.36339 0.653701,0 c 0.180137,1.43592 0.962553,2.15482 2.143662,2.18209 1.179886,0.0273 1.578988,-0.24823 1.59786,-1.13581 0.01685,-0.79264 -0.567116,-0.77697 -1.752786,-1.50529 -1.651664,-1.01459 -2.642437,-1.78405 -2.642437,-3.4725 0,-1.17232 1.149547,-2.18769 2.440192,-2.2511 2.221661,-0.10916 2.4261,0.79735 2.780369,0.0842 l 0.79262,0 0,0 0,-2e-5 0,-6e-5 z"
         id="path3153"
         sodipodi:nodetypes="cccsssssccccsssssccccc"
         inkscape:connector-curvature="0" />
      <path
         id="use3155"
         style="fill:#000000;fill-opacity:1;fill-rule:evenodd;stroke:none;display:inline"
         d="m 109.94614,222.45689 c 0,2.63464 -1.58858,4.77042 -3.54819,4.77042 -1.95962,0 -3.5482,-2.13578 -3.5482,-4.77042 0,-2.63464 1.58858,-4.77042 3.5482,-4.77042 1.95961,0 3.54819,2.13578 3.54819,4.77042 z m -1.8027,-10e-6 c 0,1.57835 -0.78148,2.85784 -1.74549,2.85784 -0.96401,0 -1.7455,-1.27949 -1.7455,-2.85784 0,-1.57834 0.78149,-2.85783 1.7455,-2.85783 0.96401,0 1.74549,1.27949 1.74549,2.85783 z"
         inkscape:connector-curvature="0" />
      <path
         sodipodi:nodetypes="ccssccccssssccccsscccccc"
         id="use3157"
         d="m 113.88947,217.42468 0.0686,0.87411 c 0,0 4.90974,-1.64168 4.93016,2.20028 l 0.0258,4.85783 c 0.004,0.78907 0.92815,1.11164 0.92815,1.11164 l 0.004,0.6932 -3.5653,-0.0169 0.0169,-0.6932 c 0,0 1.01528,-0.0548 1.01122,-1.09479 l -0.0168,-4.316 c -0.007,-1.86788 -3.30163,-1.85601 -3.30163,0 l 0,4.316 c 0,0.89643 0.85665,1.09479 0.85665,1.09479 l 0,0.6932 -3.4218,0 0.0337,-0.6932 c 0,0 0.95711,-0.19539 0.96235,-1.09479 l 0.0337,-5.78576 c 0.003,-0.53765 -0.37492,-0.40651 -0.60962,-0.31169 l -0.32227,-1.20562 1.80772,-0.62256 0.55843,-0.007 0,4.1e-4 0,5e-5 z"
         style="fill:#000000;fill-opacity:1;stroke:none;display:inline"
         inkscape:connector-curvature="0" />
      <path
         style="fill:#000000;fill-opacity:1;stroke:none"
         d="m 137.85856,224.90066 0.67415,0.87639 c -0.61448,0.32323 -1.35843,1.16539 -2.74101,1.11141 -1.73633,-0.0678 -2.84051,-1.27383 -5.31197,-4.55026 -2.689,-3.56484 -3.59723,-5.41736 -3.48022,-6.88174 0.11702,-1.46438 1.18777,-2.51678 2.5044,-2.52702 2.58376,-0.0201 6.07852,4.40691 0.80758,7.36177 -2.62288,1.47038 -2.73181,3.45146 -1.94074,4.59841 0.79108,1.14695 2.67802,1.88924 4.12664,1.119 1.70482,-0.90645 2.43604,-1.88892 2.55949,-4.51585 0.0407,-0.867 -0.85438,-0.89729 -0.85438,-0.89729 l 0,-1.11573 3.19911,0 0,1.11573 c 0,0 -0.79838,-0.10511 -0.84707,0.86422 -0.1255,2.4504 -1.12688,6.58491 -5.94746,6.6285 -1.71934,0.0155 -3.86114,-1.11416 -4.41761,-2.9126 -0.54655,-1.76636 0.13871,-4.42434 2.4891,-6.05287 1.88282,-1.30459 3.04812,-1.31545 3.01054,-2.42793 -0.0312,-0.92243 -1.05031,-2.021 -1.95165,-1.8594 -2.05854,0.36908 -0.41971,4.32169 1.92373,6.82935 2.31861,2.48109 2.48576,4.62098 6.19737,3.23591 z"
         id="path3159"
         sodipodi:nodetypes="ccssssssssccccsssssssc"
         inkscape:connector-curvature="0" />
      <path
         id="path3161"
         style="fill:#000000;fill-opacity:1;stroke:none;display:inline"
         d="m 151.75473,218.98082 c -1.523,-1.91951 -4.17661,-0.63436 -4.17661,-0.63436 l -0.0686,-0.87411 -4e-5,0 0,-5e-5 0,-4.1e-4 -0.55843,0.007 -1.80772,0.62256 0.32227,1.20562 c 0.2347,-0.0948 0.61262,-0.22596 0.60962,0.31169 l -0.0337,5.78576 c -0.005,0.8994 -0.96235,1.09479 -0.96235,1.09479 l -0.0337,0.6932 3.4218,0 0,-0.6932 c 0,0 -0.85665,-0.19836 -0.85665,-1.09479 l 0,-4.316 c 0,-1.85601 3.29463,-1.86788 3.30163,0 l 0.0168,4.316 c 0.004,1.03999 -1.01122,1.09479 -1.01122,1.09479 l -0.0169,0.6932 3.5653,0.0169 -0.004,-0.6932 c 0,0 -0.92415,-0.32257 -0.92815,-1.11164 -0.004,-0.78907 -0.0199,-2.50771 -0.0199,-4.36372 0,-1.85601 3.29463,-1.86788 3.30163,0 l 0.0168,4.316 c 0.004,1.03999 -1.01122,1.09479 -1.01122,1.09479 l -0.0169,0.6932 3.5653,0.0169 -0.004,-0.6932 c 0,0 -0.92415,-0.32257 -0.92815,-1.11164 l -0.0258,-4.85783 c -0.0102,-1.92098 -1.38336,-2.43981 -2.61335,-2.50962 -1.62334,-0.0836 -2.04266,0.16238 -3.04376,0.99137 z"
         sodipodi:nodetypes="ccccccccccccccccccccccccccccccccccc"
         inkscape:connector-curvature="0" />
      <path
         style="fill:#000000;fill-opacity:1;stroke:none;display:inline"
         d="m 162.58049,217.42468 0.101,7.93217 c 0,0.89643 0.85665,1.09479 0.85665,1.09479 l 0,0.6932 -3.4218,0 0.0337,-0.6932 c 0,0 0.95711,-0.19539 0.96235,-1.09479 l 0.0337,-5.78576 c 0.003,-0.53765 -0.37492,-0.40651 -0.60962,-0.31169 l -0.32227,-1.20562 1.80772,-0.62256 0.55843,-0.007 0,4.1e-4 0,5e-5 1.4e-4,0 z"
         id="path3163"
         sodipodi:nodetypes="ccccccssccccccc"
         inkscape:connector-curvature="0" />
      <path
         d="m 64.544491,214.2267 a 1.4300847,1.4300847 0 1 1 -2.860169,0 1.4300847,1.4300847 0 1 1 2.860169,0 z"
         sodipodi:ry="1.4300847"
         sodipodi:rx="1.4300847"
         sodipodi:cy="214.2267"
         sodipodi:cx="63.114407"
         id="path3165"
         style="fill:#000000;fill-opacity:1;stroke:none"
         sodipodi:type="arc"
         transform="matrix(0.67341453,0,0,0.67341453,118.99091,71.358451)" />
      <path
         sodipodi:nodetypes="ccccccssccccccc"
         id="path3167"
         d="m 167.33172,213.2921 0.101,12.06475 c 0,0.89643 0.85665,1.09479 0.85665,1.09479 l 0,0.6932 -3.4218,0 0.0337,-0.6932 c 0,0 0.95929,-0.19538 0.96235,-1.09479 l 0.0337,-9.91834 c 0.002,-0.53766 -0.37492,-0.40651 -0.60962,-0.31169 l -0.32227,-1.20562 1.80772,-0.62256 0.55843,-0.007 0,4.1e-4 0,5e-5 1.4e-4,0 z"
         style="fill:#000000;fill-opacity:1;stroke:none;display:inline"
         inkscape:connector-curvature="0" />
      <path
         sodipodi:nodetypes="ccccccssccccccc"
         id="use3169"
         d="m 172.12722,213.2921 0.101,12.06475 c 0,0.89643 0.85665,1.09479 0.85665,1.09479 l 0,0.6932 -3.4218,0 0.0337,-0.6932 c 0,0 0.95929,-0.19538 0.96235,-1.09479 l 0.0337,-9.91834 c 0.002,-0.53766 -0.37492,-0.40651 -0.60962,-0.31169 l -0.32227,-1.20562 1.80772,-0.62256 0.55843,-0.007 0,4.1e-4 0,5e-5 1.4e-4,0 z"
         style="fill:#000000;fill-opacity:1;stroke:none;display:inline"
         inkscape:connector-curvature="0" />
      <path
         style="fill:#000000;fill-opacity:1;stroke:none"
         d="m 181.37468,217.87195 0,2.57914 -0.79262,0 c 0,0 -1.14652,-1.34892 -2.26248,-1.39266 -0.80898,-0.0317 -1.49831,0.14725 -1.53898,0.87607 -0.0436,0.78154 0.94046,1.51885 2.5466,2.29996 1.4626,0.71129 2.00066,1.55707 2.04748,2.78224 0.0596,1.56063 -1.34217,2.3662 -2.8927,2.37183 -1.71729,0.007 -2.30189,-0.71067 -2.46678,-0.0547 l -0.6537,0 0,-3.36339 0.6537,0 c 0.18014,1.43592 0.96255,2.15482 2.14366,2.18209 1.17989,0.0273 1.57899,-0.24823 1.59786,-1.13581 0.0169,-0.79264 -0.56711,-0.77697 -1.75278,-1.50529 -1.65167,-1.01459 -2.64244,-1.78405 -2.64244,-3.4725 0,-1.17232 1.14955,-2.18769 2.44019,-2.2511 2.22166,-0.10916 2.4261,0.79735 2.78037,0.0842 l 0.79262,0 0,0 0,-2e-5 0,-6e-5 z"
         id="use3171"
         sodipodi:nodetypes="cccsssssccccsssssccccc"
         inkscape:connector-curvature="0" />
    </g>
    <g
       transform="matrix(0.99985834,0.01683156,-0.01683156,0.99985834,4.5859347,-38.784239)"
       id="use4001">
      <g
         id="g3201"
         transform="translate(0,36.9375)">
        <path
           sodipodi:nodetypes="ccccccsscccccccc"
           id="path3203"
           d="m 87.561073,247.8478 0.155829,16.44235 c 0,1.29394 1.542656,1.97801 1.542656,1.97801 l 0,1.00058 -6.420805,0 0.052,-1.00058 c 0,0 1.788745,-0.67977 1.794125,-1.97801 l 0.052,-12.54774 c 0.0032,-0.77607 -0.739138,-0.21047 -1.101246,-0.0736 l -0.364633,-1.17644 2.942158,-2.63513 1.347713,-0.0106 0,6e-4 0,7e-5 2.16e-4,0 -1.3e-5,4.9e-4 z"
           style="fill:#000000;fill-opacity:1;stroke:none;display:inline"
           inkscape:connector-curvature="0" />
        <path
           d="m 64.544491,214.2267 a 1.4300847,1.4300847 0 1 1 -2.860169,0 1.4300847,1.4300847 0 1 1 2.860169,0 z"
           sodipodi:ry="1.4300847"
           sodipodi:rx="1.4300847"
           sodipodi:cy="214.2267"
           sodipodi:cx="63.114407"
           id="path3205"
           style="fill:#000000;fill-opacity:1;stroke:none;display:inline"
           sodipodi:type="arc"
           transform="matrix(1.3726738,0,0,1.3726738,-0.52121738,-49.524167)" />
      </g>
      <path
         sodipodi:nodetypes="ccssccccssssccccssccccccc"
         id="path3207"
         d="m 112.34308,275.33258 0.13887,11.73635 c 1.84812,-4.02431 10.30329,-5.45563 10.35177,3.90692 l 0.0522,10.08024 c 0.008,1.623 1.87881,2.06551 1.87881,2.06551 l 0.008,1.11645 -7.37112,-0.0348 0.0343,-1.11645 c 0,0 2.05509,0.10829 2.04698,-2.03086 l -0.034,-8.97021 c -0.0233,-6.13907 -6.90119,-4.8782 -6.90119,0 l 0,8.97021 c 0,1.84382 1.73408,2.03086 1.73408,2.03086 l 0,1.11645 -6.99223,0 0.0682,-1.11645 c 0,0 1.94231,-0.18091 1.94806,-2.03086 l 0.0682,-21.92729 c 0.003,-1.10588 -0.71476,-0.70354 -1.18987,-0.50852 l -0.29879,-0.71201 3.20218,-2.56215 1.2554,-0.0144 0,8.4e-4 0,1.1e-4 1.5e-4,6e-5 z"
         style="fill:#000000;fill-opacity:1;stroke:none;display:inline"
         inkscape:connector-curvature="0" />
      <path
         sodipodi:nodetypes="cccsssssccccsssssccccccc"
         id="path3209"
         d="m 104.87119,284.52475 0,4.32766 -1.19169,0 c -0.3853,-1.59783 -1.78831,-2.01546 -4.133858,-2.05893 -1.713478,-0.0318 -2.372956,0.62438 -2.396551,1.8086 -0.03336,1.67423 1.550516,2.20476 4.941099,3.8946 2.60987,1.30074 3.76506,3.86695 3.87068,6.80137 0.082,2.27811 -2.71548,5.12916 -5.62194,5.12916 -2.641022,0 -4.534865,-2.70983 -5.171166,-0.29002 l -1.38375,0 0,-6.36658 1.38375,0 c 0.182438,2.09971 1.677008,3.30967 4.177848,3.30967 1.834708,0 2.764708,-0.50832 2.804678,-2.40719 0.0357,-1.69575 -1.26296,-2.22472 -3.772786,-3.78288 -3.496229,-2.17058 -4.445743,-3.44411 -4.445743,-5.93213 0,-2.06656 2.232372,-4.31901 4.962723,-4.48515 3.111796,-0.18935 3.416406,1.48932 4.785016,0.052 l 1.19169,0 0,0 0,-5e-5 0,-1.3e-4 0,-2e-5 0,2e-5 z"
         style="fill:#000000;fill-opacity:1;stroke:none;display:inline"
         inkscape:connector-curvature="0" />
      <path
         sodipodi:nodetypes="cccssssssccccssscccccsscccccc"
         id="path3211"
         d="m 79.775719,277.4729 -0.04116,4.97305 -1.11433,-0.0135 c -0.440946,-1.32112 -0.6012,-2.01256 -2.97904,-2.03576 l -5.14577,-0.0502 c -1.93997,-0.0189 -3.157451,0.87275 -3.14577,2.10605 l 0.04268,4.50638 c 0.0196,2.06944 0.39562,2.29121 1.97942,2.29121 l 3.130335,0 c 1.235204,0 1.5203,-0.94178 1.690167,-3.03159 l 1.345084,0 0.0027,8.5831 -1.342417,0 c -0.0652,-2.12849 -0.79917,-2.95837 -1.684832,-2.95837 l -3.119665,0 c -1.649125,0 -1.969374,0.34689 -1.95808,2.21799 l 0.04268,7.0711 c 0,1.29363 2.288171,1.97754 2.288171,1.97754 l 0,1.12534 -8.081119,0 0.05697,-1.12534 c 0,0 2.559969,-0.6796 2.563655,-1.97754 l 0.05697,-20.05982 c 0.0022,-0.77589 -0.340976,-2.55637 -1.706415,-2.66953 l 0,-0.9206 17.119798,-0.009 0,-7e-5 0,-4.4e-4 -3.2e-5,0 z"
         style="fill:#000000;fill-opacity:1;stroke:none;display:inline"
         inkscape:connector-curvature="0" />
      <path
         style="fill:#000000;fill-opacity:1;stroke:none;display:inline"
         d="m 153.18136,276.06899 0,6.8528 -1.21818,0 c -0.29741,-3.01668 -2.16216,-4.58854 -5.85588,-4.65377 -2.69835,-0.0477 -4.44398,1.69463 -4.48115,3.47187 -0.0526,2.51263 3.14883,3.4856 8.48824,6.02166 4.10997,1.9521 5.26623,4.07982 5.43256,8.48369 0.12913,3.41891 -4.05531,8.13961 -8.63234,8.13961 -4.15902,0 -6.29636,-2.66999 -7.39214,-0.19468 l -1.19779,0 0,-8.30474 1.19779,0 c 0.28731,3.15117 2.15478,4.31615 6.09304,4.31615 1.69832,0 4.61898,-0.58609 4.68192,-3.43584 0.0563,-2.54494 -2.25405,-3.02944 -6.20647,-5.36787 -5.50579,-3.25753 -6.38233,-4.10815 -6.38233,-8.54918 0,-3.80879 3.82484,-6.96797 8.12453,-7.21731 4.9004,-0.28416 4.47476,1.65746 6.13002,0.43783 l 1.21818,0 0,0 0,-7e-5 0,-2.1e-4 0,-3e-5 0,3e-5 0,6e-5 z"
         id="path3213"
         sodipodi:nodetypes="cccsssssccccssssscccccccc"
         inkscape:connector-curvature="0" />
      <path
         style="fill:#000000;fill-opacity:1;stroke:none"
         d="m 162.95777,275.52929 0,8.19422 3.62392,0 0,2.06326 -3.62392,0 0,12.02082 c 0,4.22012 2.11796,2.51626 2.89092,-0.35355 l 0.98116,0 c -0.79959,4 -1.9267,6.84696 -4.04885,6.84696 -1.88915,0 -3.09804,-2.28297 -3.09804,-4.81402 l 0,-13.70021 -3.94086,0 0,-2.06326 c 4.80241,0.0599 4.95142,-2.44501 5.70863,-8.19422 l 1.50704,0 0,0 z"
         id="path3215"
         sodipodi:nodetypes="cccccsccsscccccc"
         inkscape:connector-curvature="0" />
      <g
         id="use3217"
         transform="translate(86.207107,36.90625)">
        <path
           sodipodi:nodetypes="ccccccsscccccccc"
           id="path3233"
           d="m 87.561073,247.8478 0.155829,16.44235 c 0,1.29394 1.542656,1.97801 1.542656,1.97801 l 0,1.00058 -6.420805,0 0.052,-1.00058 c 0,0 1.788745,-0.67977 1.794125,-1.97801 l 0.052,-12.54774 c 0.0032,-0.77607 -0.739138,-0.21047 -1.101246,-0.0736 l -0.364633,-1.17644 2.942158,-2.63513 1.347713,-0.0106 0,6e-4 0,7e-5 2.16e-4,0 -1.3e-5,4.9e-4 z"
           style="fill:#000000;fill-opacity:1;stroke:none;display:inline"
           inkscape:connector-curvature="0" />
        <path
           d="m 64.544491,214.2267 a 1.4300847,1.4300847 0 1 1 -2.860169,0 1.4300847,1.4300847 0 1 1 2.860169,0 z"
           sodipodi:ry="1.4300847"
           sodipodi:rx="1.4300847"
           sodipodi:cy="214.2267"
           sodipodi:cx="63.114407"
           id="path3235"
           style="fill:#000000;fill-opacity:1;stroke:none;display:inline"
           sodipodi:type="arc"
           transform="matrix(1.3726738,0,0,1.3726738,-0.52121738,-49.524167)" />
      </g>
      <path
         style="fill:#000000;fill-opacity:1;stroke:none"
         d="m 191.27238,297.2238 1.20083,0.30622 c -0.44116,3.13579 -1.32416,6.77373 -6.69163,6.77373 -4.1378,0 -7.23712,-4.41988 -7.23712,-8.62452 0,-5.39169 3.12484,-8.72364 7.10232,-8.72364 2.85248,0 5.9787,1.40018 5.9787,3.4834 0,1.13641 -0.72079,2.23823 -1.61323,2.23823 -0.89244,0 -2.17185,-0.68789 -2.17185,-1.65133 0,-0.95761 -1.13296,-1.33026 -2.54717,-1.33026 -1.41422,0 -3.63373,2.56326 -3.63373,5.65685 0,3.59359 2.22487,5.95679 4.52297,5.95679 2.2981,0 3.91081,-1.48155 5.08991,-4.08547 z"
         id="path3219"
         sodipodi:nodetypes="ccsssssssssc"
         inkscape:connector-curvature="0" />
      <path
         style="fill:#000000;fill-opacity:1;stroke:none;display:inline"
         d="m 225.72215,284.87831 0,4.32766 -1.19169,0 c -0.3853,-1.59783 -1.34637,-2.19224 -3.69192,-2.23571 -1.71348,-0.0318 -2.19617,0.62438 -2.21977,1.8086 -0.0334,1.67423 1.37374,2.02798 4.76432,3.71782 2.60987,1.30074 4.65243,2.98305 4.66618,6.62459 0.012,3.16344 -3.51098,5.30594 -6.41744,5.30594 -2.64102,0 -4.53487,-2.70983 -5.17117,-0.29002 l -1.38375,0 0,-6.36658 1.38375,0 c 0.18244,2.09971 1.67701,3.30967 4.17785,3.30967 1.83471,0 2.67632,-0.50832 2.71629,-2.40719 0.0357,-1.69575 -0.91995,-1.76593 -3.41923,-3.34094 -3.58462,-2.25897 -5.32963,-3.09056 -5.24124,-6.02052 0.0786,-2.68413 2.31644,-4.64541 5.49305,-4.8387 3.1118,-0.18935 2.97447,1.84288 4.34308,0.40556 l 1.19169,0 0,0 0,-5e-5 0,-1.3e-4 0,-2e-5 0,2e-5 z"
         id="path3221"
         sodipodi:nodetypes="cccsssssccccsssssccccccc"
         inkscape:connector-curvature="0" />
      <path
         id="path3223"
         style="fill:#000000;fill-opacity:1;stroke:none;display:inline"
         d="m 199.45173,295.55986 0,5.66943 c 0,1.29394 1.54266,1.97801 1.54266,1.97801 l 0,1.00058 -6.42081,0 0,-1.00058 c 0,0 1.84267,-0.67976 1.84613,-1.97801 l 0.052,-19.51687 c 0.002,-0.77608 -0.73914,-0.21047 -1.10125,-0.0736 l -0.36463,-1.17644 2.94216,-4.23738 1.50374,-0.0106 0,6e-4 0,7e-5 0,0 0,4.9e-4 0,14.70217 c 0,1.10824 1.46256,1.3562 1.97492,0.77811 l 2.72925,-3.07937 c 0.85115,-0.9803 -0.4616,-1.48873 -0.4616,-1.48873 l 0,-1.00058 7.12597,0 0,1.00058 c -1.62977,0.29354 -2.99317,1.39511 -4.04161,2.65644 l -3.13577,3.596 c -0.17878,0.20502 -0.34191,0.87087 -0.16824,1.08024 l 4.99904,6.13463 c 1.00279,1.2064 0.96596,2.20335 3.28587,2.61225 l 0,1.00058 -7.81098,0 0,-1.00058 c 0,0 2.63478,-0.87271 1.78363,-1.85301 0,0 -3.04867,-3.51125 -4.573,-5.26687 -1.00147,-1.15342 -1.70748,-1.31147 -1.70748,-0.52756 z"
         sodipodi:nodetypes="ccccccccccccccccssccccccccccccccss"
         inkscape:connector-curvature="0" />
    </g>
    <path
       id="path4005"
       style="fill:#000000;fill-opacity:1;fill-rule:evenodd;stroke:none"
       d="m 272.79536,166.99728 c 1.6098,10.33824 6.74138,21.13142 20.34034,27.99764 -3.1289,-6.41393 -6.33944,-18.00949 -4.39154,-27.49017 18.33419,-0.68182 39.28378,-0.39259 73.74111,-0.61668 17.37087,-0.11297 48.48726,-2.24098 57.8869,-6.24084 14.48001,-6.16172 19.70229,-16.87434 18.94389,-27.68989 -2.30004,-32.80078 -21.57007,-38.453028 -34.0118,-43.882812 -14.81777,-6.466731 -21.94139,-12.83424 -71.17264,-11.621479 -35.12605,0.865294 -55.95059,1.382156 -68.74974,6.501818 -12.79915,5.119661 -36.80876,17.888333 -37.51358,41.499763 -0.73138,24.50124 8.92226,29.52998 20.88377,35.7189 7.34572,3.8007 24.04329,5.82375 24.04329,5.82375 z m 2.61625,-0.34325 c 1.3751,9.93471 7.36612,18.42317 12.99372,22.83969 -3.45232,-7.05562 -4.67631,-16.47178 -2.28033,-24.86872 0,0 34.19437,-0.14002 67.78194,-0.49358 33.58757,-0.35355 84.49926,2.82843 82.37794,-31.1127 -2.12132,-33.941121 -22.98097,-36.415995 -34.64823,-42.426403 -11.66726,-6.010407 -33.58757,-11.799845 -67.5287,-10.385631 -33.94112,1.414214 -54.09367,0.486136 -66.46803,5.435884 -12.37437,4.949747 -36.416,16.26346 -37.12311,39.95153 -0.70711,23.68808 11.67559,30.55512 21.30159,33.94113 6.10529,2.14758 10.1524,4.47917 27.13522,4.86136 0.24944,0.66324 0.27856,1.39992 -0.17677,2.29809 -0.81815,0.0967 -1.84711,0.097 -3.36524,-0.0406 l 0,-5e-5 z"
       sodipodi:nodetypes="cccssssssssccccssssssscccc"
       inkscape:connector-curvature="0" />
    <path
       id="path4010"
       style="fill:#000000;fill-opacity:1;fill-rule:evenodd;stroke:none"
       d="m 429.96075,222.19258 c 3.71258,-1.50787 5.38534,-4.57513 5.73702,-9.82644 4.08833,-0.28709 6.08789,-0.23692 9.013,-2.2037 2.5843,-1.73763 5.50464,-2.37353 5.18638,-14.49607 -0.20647,-7.86428 -1.8206,-14.28014 -5.09338,-17.38067 -2.21073,-2.09438 -3.07497,-3.28714 -10.20152,-4.06188 -7.12655,-0.77474 -20.97651,-0.98475 -28.90158,-0.81406 -9.33031,0.20096 -16.42774,-0.17678 -22.48526,0.23232 -6.05752,0.4091 -11.5958,1.50468 -13.80256,2.37893 -4.45822,1.7662 -9.87463,6.11996 -9.56026,13.23647 0.44133,9.9906 2.26551,12.30706 5.11371,16.09716 1.74869,2.32698 5.44298,6.13435 16.38457,6.26281 6.31572,0.0746 18.80004,0.0847 27.97492,0.15994 9.17486,0.0753 18.91545,0.5212 18.91545,0.5212 1.86611,1.82828 2.854,4.80178 1.71951,9.89399 z m -3.33575,3.86992 c 6.21828,-0.6889 10.2842,-3.68752 11.6875,-12.125 4.45024,-0.3125 6.11936,-0.41339 9.0625,-2.875 3.96962,-3.32014 4.76733,-6.93774 4.625,-16.1875 -0.13265,-8.56238 -1.4375,-15 -5,-18.375 -2.40643,-2.27978 -4.007,-4.1554 -11.76441,-4.99873 -7.75741,-0.84332 -21.39022,-0.68707 -30.01684,-0.50127 -10.15625,0.21875 -17.30469,0 -23.89844,0.44531 -6.59375,0.44532 -12.56691,1.66559 -14.82031,2.92969 -5.125,2.875 -9.5922,6.25352 -9.25,14 0.4804,10.875 1.64967,13.12439 4.75,17.25 1.90349,2.53297 3.54366,7.83394 17.42678,8.10983 6.87393,0.1366 20.26018,0.0922 30.24724,0.1741 9.98705,0.0819 17.45098,0.21607 17.45098,0.21607 2.27613,4.27059 0.83147,8.62793 -0.5,11.9375 z"
       sodipodi:nodetypes="ccsssssssssssccccssssssssssscc"
       inkscape:connector-curvature="0" />
    <path
       id="path4016"
       style="fill:#000000;fill-opacity:1;fill-rule:evenodd;stroke:none"
       d="m 317.4375,192.9375 c 6.13324,0.95366 11.6875,6.5625 9.125,12.125 -0.62159,1.34932 1.0625,2.75 2.5625,1.625 1.27279,-0.95459 4.62227,-2.62788 7.3125,0.25 3.41107,3.649 1.84352,6.16423 1.0625,6.75 -1.25,0.9375 -0.4375,2.5 1.25,2.0625 0.89327,-0.23159 6.66425,2.69238 6,7.875 -0.8537,6.66072 -5.39349,7.11346 -7.5625,7.5625 -1.26637,0.26217 -1.25358,2.38491 0.8125,3.125 4.1875,1.5 7.01772,1.93873 7,7.875 -0.0161,5.3992 -3.97947,7.72008 -6.375,8.1875 -2.5625,0.5 -1.7061,2.43588 0.4375,3.25 3.5438,1.34591 8.04167,5.2904 6.75,10.375 -2.08436,8.20497 -6.875,7.5 -9.4375,5.125 -1.74551,-1.61779 -3.0625,0.625 -1.6875,2.375 1.375,1.75 2.72537,6.27934 -0.1875,10 -4.02116,5.1363 -7.25,3 -8.375,1.625 -1.125,-1.375 -2.53429,-0.81095 -2.1875,1.4375 0.48181,3.12384 -2.57102,4.06794 -5.6875,4.5625 -4.61455,0.73229 -6.625,-1.125 -7.0625,-3.25 -0.30897,-1.50073 -1.69286,-2.29631 -3.125,-0.125 -1.9375,2.9375 -7.54582,3.14991 -10.1875,2 -5.3125,-2.3125 -6.1875,-5.4375 -3.8125,-9.125 1.08348,-1.68225 0.27893,-3.03241 -2,-2.6875 -2.35148,0.35588 -5.375,-1.0625 -5.5625,-4.9375 -0.10623,-2.23092 1.0625,-5.5625 3.25,-6.1875 2.1875,-0.625 3,-3 -0.5625,-4.0625 -1.62706,-0.48526 -4.1875,-3.625 -3.625,-7.9375 0.36947,-2.8326 0.875,-6.4375 4.375,-7.4375 2.23325,-0.63807 2.62343,-2.74187 -0.3125,-3.3125 -2.77904,-0.54014 -4.48151,-3.24726 -4.4375,-5.75 0.0407,-2.31371 2.125,-4.4375 4.0625,-5.375 1.30857,-0.63318 2.1875,-2 -0.4375,-2.8125 -1.77517,-0.54946 -5.12878,-3.8116 -3.375,-7.3125 1.8547,-3.70237 4.1875,-3.9375 6.75,-3.3125 1.60305,0.39099 4.01471,-0.0729 0.875,-3 -1.22869,-1.14549 -2.29705,-2.90532 -2.46599,-5.60257 -0.21438,-3.42282 0.13391,-6.71025 4.62916,-8.93765 3.22508,-1.59803 8.45459,-0.22117 9.71183,1.66522 1.08918,1.63423 3.93148,2.90234 3,-1.4375 -1.06692,-4.97085 2.80481,-8.29104 9.5,-7.25 z m -30.35215,51.0086 c -2.67821,-1.99006 -4.35736,-4.15072 -4.02167,-7.91076 0.19841,-2.22232 1.03361,-4.11151 4.07973,-6.04701 -1.78055,-1.24538 -3.90321,-2.8267 -4.53814,-4.73973 -0.43785,-1.31924 -0.42982,-4.81047 0.89867,-6.92707 1.32849,-2.1166 3.97745,-2.85858 6.32145,-3.17931 -1.94453,-3.62834 -3.70503,-8.70512 0.79549,-14.72738 3.51954,-4.70958 12.60067,-2.87056 15.00328,-1.45527 0.48594,-4.95502 2.39721,-8.4062 11.60422,-8.43036 7.20113,-0.0189 13.70687,8.09161 12.11104,12.63953 3.51155,-1.13056 6.55608,-0.29467 8.61342,1.88649 2.46356,2.61183 3.88018,5.20701 2.2981,8.79463 3.22336,0.80267 6.76595,3.69534 6.71751,8.88304 -0.0444,4.75622 -1.01667,7.19354 -6.31976,9.8111 3.6522,1.50305 7.15572,3.6921 7.12794,10.4811 -0.0126,3.07383 -1.39301,5.3866 -6.02309,8.83176 3.25719,2.60096 5.62686,3.82901 6.31977,9.89949 0.27039,2.36877 0.18303,4.59484 -1.50925,7.38839 -1.69227,2.79354 -3.94949,4.0671 -7.94831,4.49984 0.68229,3.91831 -0.0933,7.8051 -3.40294,10.96016 -2.8207,2.6889 -6.15474,3.21702 -9.104,1.76776 -0.74203,2.77984 -2.72124,4.22845 -6.54074,5.03814 -3.78063,0.80146 -8.08118,1.07886 -9.81111,-3.62392 -2.55141,2.67313 -5.06096,3.3437 -8.2206,3.40544 -3.0739,0.0601 -5.64051,-0.78286 -8.35221,-3.14028 -1.76921,-1.53806 -3.14259,-4.83737 -1.98874,-9.45755 -3.48947,-1.25785 -6.08548,-2.30481 -6.7617,-5.74524 -0.82243,-4.18425 0.26704,-7.19984 3.7123,-9.59014 -2.31432,-1.44645 -4.79147,-3.68152 -5.12652,-8.75044 -0.24965,-3.77692 1.18678,-7.61181 4.06586,-10.56241 z"
       inkscape:connector-curvature="0" />
    <path
       id="path4021"
       style="fill:#000000;fill-opacity:1;fill-rule:evenodd;stroke:none"
       d="m 404.875,220.9375 c 3.89973,0.74654 7.72732,5.38029 7.875,7.4375 0.0625,0.87062 1.25,1.54108 2.8125,0.3125 1.57296,-1.23681 3.125,-2.625 6.6875,-0.4375 4.69178,2.88092 7.0625,5.625 7.3125,9.875 0.21299,3.6209 -1.125,6.8125 -3.6875,7.5 -2.5625,0.6875 -2.5625,3.125 0.8125,3.3125 2.97516,0.16529 10.86914,4.68876 11,9.9375 0.14503,5.75468 -3.8125,9.1875 -8.625,9.25 -2.97097,0.0386 -3.5625,2.125 -1.4375,3.875 2.01537,1.65972 3.3035,4.47346 2.125,6.875 -1.2775,2.60327 -3.83194,3.97822 -7.375,3.125 -1.83414,-0.44169 -2.625,0.4375 -1.0625,2.8125 1.5625,2.375 0.5,5.25 -1.5625,6.6875 -2.0625,1.4375 -4.98589,2.1074 -7.5,1.4375 -1.76373,-0.46996 -4.04065,-1.94963 -4.25,-3.75 -0.3125,-2.6875 -2.30271,-2.92471 -3.75,-1.0625 -1.63573,2.10467 -4.5,3.375 -7.0625,2.375 -2.5625,-1 -3.49025,-2.68432 -3.125,-4.4375 0.3125,-1.5 -1.15639,-2.3466 -2.5,-1.9375 -1.71241,0.52139 -2.4375,0.1875 -2.8125,-0.375 -0.54154,-0.81232 -0.73701,-1.73051 -0.5625,-2.5625 0.17271,-0.82342 -0.77142,-1.24365 -2.4375,-0.75 -3.375,1 -5.875,-1.125 -6.5625,-3.125 -0.6875,-2 0.69089,-3.60318 2.8125,-4.75 2.3125,-1.25 1.6875,-2.6875 0.0625,-2.5 -1.625,0.1875 -2.6875,-1.875 -2.375,-2.875 0.3125,-1 0.79088,-1.10623 2.4375,-1 1.9375,0.125 2.1875,-1.6875 0.6875,-3.0625 -1.5,-1.375 -2.625,-3.5 -1.9375,-5.8125 0.54519,-1.83383 1.63711,-2.9835 3.1875,-3.1875 2.375,-0.3125 2.375,-2.3125 -0.75,-3.375 -2.41381,-0.82069 -3.99084,-2.15712 -5,-4.3125 -1.03063,-2.20123 -1.125,-8 2.3125,-9.75 2.74279,-1.39633 5.7347,-2.90071 8.1875,-1 2.33665,1.8107 3.9375,2.5 2.5,-2.4375 -0.51383,-1.7649 -0.7871,-7.01475 1.625,-9.125 2.06652,-1.80792 4.1624,-4.67591 11.9375,-3.1875 z m -16.00733,12.27256 c -1.05087,-4.93966 -0.47892,-7.4366 2.49188,-10.36473 3.80917,-3.75444 7.88554,-5.65681 14.40991,-4.00152 5.68605,1.4426 6.54765,4.07912 8.52189,6.9934 3.6402,-1.9679 6.26914,-1.14269 9.10714,0.1067 4.10742,1.80823 7.72574,5.06403 8.49731,10.90339 0.49059,3.71288 0.39369,6.34739 -2.77037,9.54779 4.13233,1.64263 7.44774,3.61498 9.56555,7.61656 2.2361,4.22509 1.76237,8.62115 -0.49372,12.05743 -2.48272,3.78147 -5.03895,3.76205 -7.67907,4.33102 1.62632,3.07111 2.71964,8.05508 0.87761,10.48345 -2.20808,2.91094 -3.09415,3.65389 -7.22012,4.33991 1.03315,2.66681 -0.12544,7.52221 -3.02221,8.87544 -4.05261,1.89318 -5.81473,2.16023 -9.78782,1.05438 -3.57609,-0.99535 -4.18645,-2.20876 -5.44975,-5.35507 -2.77809,2.86446 -5.89999,4.02626 -9.65577,3.14092 -3.57949,-0.84379 -4.46985,-2.86478 -4.69975,-6.47824 -1.88,0.5165 -2.69963,0.30688 -3.90869,-0.46154 -1.00065,-0.63597 -1.47401,-1.70554 -1.43881,-3.38335 -2.92392,0.79247 -5.47255,0.26017 -6.93848,-0.97227 -1.50219,-1.26293 -3.10254,-2.63745 -3.00521,-4.99394 0.0878,-2.12601 1.41816,-3.70403 3.18199,-5.12653 -1.4282,-0.90986 -2.80937,-2.62399 -2.3423,-4.33102 0.39851,-1.45645 1.31072,-2.62438 3.53554,-2.96102 -1.82611,-2.33685 -2.45784,-3.87201 -2.2981,-5.78943 0.23114,-2.77452 1.35923,-4.30965 2.82843,-5.70105 -1.92112,-1.50683 -5.08837,-2.9164 -5.65686,-6.58493 -0.57871,-3.73448 -0.30367,-8.19922 2.82843,-10.6508 3.13198,-2.45148 5.19971,-3.79143 10.52135,-2.29495 z"
       inkscape:connector-curvature="0" />
    <path
       style="fill:none;stroke:#000000;stroke-width:2.20000005;stroke-linecap:round;stroke-linejoin:round;stroke-miterlimit:4;stroke-opacity:1;stroke-dasharray:none"
       d="m 260.875,112.375 c 0.26168,-5.79167 0.3213,-11.58333 0.25,-17.374999 4.76204,5.708329 9.27856,11.416669 13.375,17.124999 -0.20308,-6.33333 -0.46677,-12.666666 -1,-18.999999"
       id="path4024"
       sodipodi:nodetypes="cccc"
       inkscape:connector-curvature="0" />
    <path
       style="fill:none;stroke:#000000;stroke-width:2.20000005;stroke-linecap:round;stroke-miterlimit:4;stroke-opacity:1;stroke-dasharray:none"
       d="m 292,103.75 c 0,4.28021 -1.72918,6.5 -5.25,6.5 -3.52082,0 -5.875,-2.59479 -5.875,-6.875 0,-4.280207 2.10418,-5.625 5.625,-5.625 3.52082,0 5.5,1.719793 5.5,6 z"
       id="path4026"
       sodipodi:nodetypes="cssss"
       inkscape:connector-curvature="0" />
    <path
       style="fill:none;stroke:#000000;stroke-width:2.20000005;stroke-linecap:round;stroke-linejoin:round;stroke-miterlimit:4;stroke-opacity:1;stroke-dasharray:none"
       d="m 298.125,97.625001 c -3.17566,15.174289 4.27179,18.288789 7.25,5.624999 0.92098,12.20238 11.16187,7.79157 6.875,-6.999999"
       id="path4029"
       sodipodi:nodetypes="ccc"
       inkscape:connector-curvature="0" />
    <path
       sodipodi:nodetypes="ccc"
       id="path4031"
       d="m 329.75,97.875001 c -1.67566,14.049289 5.64679,16.288789 8,3.999999 2.17098,12.70238 10.28687,8.79157 5.625,-4.499999"
       style="fill:none;stroke:#000000;stroke-width:2.20000005;stroke-linecap:round;stroke-linejoin:round;stroke-miterlimit:4;stroke-opacity:1;stroke-dasharray:none"
       inkscape:connector-curvature="0" />
    <path
       sodipodi:nodetypes="cc"
       id="path4046"
       d="m 350.5,109.125 c -0.48832,-3.04167 -1.0537,-6.08333 -0.75,-8.875"
       style="fill:none;stroke:#000000;stroke-width:2.20000005;stroke-linecap:round;stroke-linejoin:round;stroke-miterlimit:4;stroke-opacity:1;stroke-dasharray:none"
       inkscape:connector-curvature="0" />
    <path
       style="fill:none;stroke:#000000;stroke-width:2.20000005;stroke-linecap:round;stroke-linejoin:round;stroke-miterlimit:4;stroke-opacity:1;stroke-dasharray:none"
       d="m 349.875,95 c 0.0117,-0.66667 -0.0537,-0.58333 0.25,-1.125"
       id="path4061"
       sodipodi:nodetypes="cc"
       inkscape:connector-curvature="0" />
    <path
       sodipodi:nodetypes="cc"
       id="path4046-4"
       d="m 359.7164,109.70228 c -0.13477,-3.04167 -0.70015,-8.55821 -0.75,-11.173095"
       style="fill:none;stroke:#000000;stroke-width:2.20000005;stroke-linecap:round;stroke-linejoin:round;stroke-miterlimit:4;stroke-opacity:1;stroke-dasharray:none;display:inline"
       inkscape:connector-curvature="0" />
    <path
       style="fill:none;stroke:#000000;stroke-width:2.20000005;stroke-linecap:round;stroke-linejoin:round;stroke-miterlimit:4;stroke-opacity:1;stroke-dasharray:none;display:inline"
       d="m 364.84292,98.211795 c -3.77616,-0.519522 -8.97449,0.03823 -11.00304,0.140613"
       id="path4085"
       sodipodi:nodetypes="cc"
       inkscape:connector-curvature="0" />
    <path
       sodipodi:nodetypes="cc"
       id="path4046-4-7"
       d="m 380.75,111.83655 c -0.88477,-4.04167 -0.82515,-12.55821 -1,-14.923097"
       style="fill:none;stroke:#000000;stroke-width:2.20000005;stroke-linecap:round;stroke-linejoin:round;stroke-miterlimit:4;stroke-opacity:1;stroke-dasharray:none;display:inline"
       inkscape:connector-curvature="0" />
    <path
       style="fill:none;stroke:#000000;stroke-width:2.20000005;stroke-linecap:round;stroke-linejoin:round;stroke-miterlimit:4;stroke-opacity:1;stroke-dasharray:none;display:inline"
       d="m 371,109.71155 c -0.13477,-2.91667 -0.82515,-9.43321 -0.75,-11.798097"
       id="path4109"
       sodipodi:nodetypes="cc"
       inkscape:connector-curvature="0" />
    <path
       style="fill:none;stroke:#000000;stroke-width:2.20000005;stroke-linecap:round;stroke-linejoin:round;stroke-miterlimit:4;stroke-opacity:1;stroke-dasharray:none;display:inline"
       d="m 379.50152,103.66381 c -2.90116,-0.0195 -6.22449,-0.3368 -8.25304,-0.23438"
       id="path4085-8"
       sodipodi:nodetypes="cc"
       inkscape:connector-curvature="0" />
    <path
       style="fill:none;stroke:#000000;stroke-width:2.20000005;stroke-linecap:round;stroke-linejoin:round;stroke-miterlimit:4;stroke-opacity:1;stroke-dasharray:none;display:inline"
       d="m 243.5033,143.70439 c 0.96879,-5.26134 2.26584,-11.76011 3.43198,-17.19823 0.96681,4.09161 2.66773,8.00643 4.81578,12.62837 2.71749,-4.11195 3.85935,-7.37315 5.90757,-13.18103 2.2718,4.27327 1.12422,11.72851 2.53553,18.29987"
       id="path4024-1"
       sodipodi:nodetypes="ccccc"
       inkscape:connector-curvature="0" />
    <path
       style="fill:none;stroke:#000000;stroke-width:2.20000005;stroke-linecap:round;stroke-miterlimit:4;stroke-opacity:1;stroke-dasharray:none;display:inline"
       d="m 276.11923,136.68122 c 0,3.87955 -1.82949,5.97993 -5.01463,5.97993 -3.18515,0 -4.53926,-2.5301 -4.64438,-6.40822 -0.0884,-3.26082 2.47239,-5.16559 4.59499,-5.01005 2.56108,0.18766 5.06402,1.5588 5.06402,5.43834 z"
       id="path4026-6"
       sodipodi:nodetypes="cssss"
       inkscape:connector-curvature="0" />
    <path
       style="fill:none;stroke:#000000;stroke-width:2.20000005;stroke-linecap:round;stroke-linejoin:round;stroke-miterlimit:4;stroke-opacity:1;stroke-dasharray:none;display:inline"
       d="m 282.52957,145.85096 c -0.28121,-5.01134 -1.10916,-9.51011 -0.81802,-15.32323 8.84181,-2.65839 13.41773,6.38143 1.06578,7.25337 5.46749,2.63805 9.60935,6.25185 11.03257,8.06897"
       id="path4024-1-8"
       sodipodi:nodetypes="cccc"
       inkscape:connector-curvature="0" />
    <path
       style="fill:none;stroke:#000000;stroke-width:2.20000005;stroke-linecap:round;stroke-linejoin:round;stroke-miterlimit:4;stroke-opacity:1;stroke-dasharray:none;display:inline"
       d="m 299.0625,145.125 c -0.86332,-4.29167 -1.4287,-7.58333 -1.5,-13.375 2.81781,-0.98606 8.44348,-1.12813 12.75,-1.5"
       id="path4024-7"
       sodipodi:nodetypes="ccc"
       inkscape:connector-curvature="0" />
    <path
       style="fill:none;stroke:#000000;stroke-width:2.20000005;stroke-linecap:round;stroke-linejoin:round;stroke-miterlimit:4;stroke-opacity:1;stroke-dasharray:none;display:inline"
       d="m 306.87652,137.03881 c -3.27616,0.23048 -5.84949,-0.0868 -8.37804,0.64062"
       id="path4085-9"
       sodipodi:nodetypes="cc"
       inkscape:connector-curvature="0" />
    <path
       style="fill:none;stroke:#000000;stroke-width:2.20000005;stroke-linecap:round;stroke-linejoin:round;stroke-miterlimit:4;stroke-opacity:1;stroke-dasharray:none;display:inline"
       d="m 310.18902,143.17969 c -3.52616,0.73048 -7.84949,1.4132 -10.37804,1.51562"
       id="path4085-9-5"
       sodipodi:nodetypes="cc"
       inkscape:connector-curvature="0" />
    <path
       style="fill:none;stroke:#000000;stroke-width:2.20000005;stroke-linecap:round;stroke-linejoin:round;stroke-miterlimit:4;stroke-opacity:1;stroke-dasharray:none;display:inline"
       d="m 338.844,131.01308 c -3.80418,-3.22841 -9.58558,-0.33677 -9.11917,3.66142 0.49015,4.2016 9.93964,1.1793 9.05842,8.82767 -0.40545,3.51908 -6.65886,5.26638 -9.472,-0.18795"
       id="path4024-1-4"
       sodipodi:nodetypes="cssc"
       inkscape:connector-curvature="0" />
    <path
       style="fill:none;stroke:#000000;stroke-width:2.20000005;stroke-linecap:round;stroke-miterlimit:4;stroke-opacity:1;stroke-dasharray:none;display:inline"
       d="m 352.20562,138.35149 c 0,3.07323 -1.25848,4.98707 -4.31999,4.98707 -3.06152,0 -4.11307,-1.50425 -4.21411,-4.57634 -0.085,-2.5831 2.12643,-4.46698 4.16664,-4.34377 2.46167,0.14866 4.36746,0.85982 4.36746,3.93304 z"
       id="path4026-6-9"
       sodipodi:nodetypes="cssss"
       inkscape:connector-curvature="0" />
    <path
       sodipodi:nodetypes="cc"
       id="path4046-4-0"
       d="m 358.375,145.08655 c 0.24023,-3.41667 0.0498,-7.43321 -0.625,-10.2981"
       style="fill:none;stroke:#000000;stroke-width:2.20000005;stroke-linecap:round;stroke-linejoin:round;stroke-miterlimit:4;stroke-opacity:1;stroke-dasharray:none;display:inline"
       inkscape:connector-curvature="0" />
    <path
       style="fill:none;stroke:#000000;stroke-width:2.20000005;stroke-linecap:round;stroke-linejoin:round;stroke-miterlimit:4;stroke-opacity:1;stroke-dasharray:none;display:inline"
       d="m 356.75,145.46155 c 7.62011,-0.70834 9.99616,-2.78584 9.74939,-5.46534 -0.24686,-2.68042 -4.03699,-5.96281 -10.62439,-6.58276"
       id="path4333"
       sodipodi:nodetypes="csc"
       inkscape:connector-curvature="0" />
    <path
       sodipodi:nodetypes="cc"
       id="path4046-49"
       d="m 375.41777,144.1875 c -0.98832,-2.91667 -1.1787,-6.70833 -2,-8.875"
       style="fill:none;stroke:#000000;stroke-width:2.20000005;stroke-linecap:round;stroke-linejoin:round;stroke-miterlimit:4;stroke-opacity:1;stroke-dasharray:none;display:inline"
       inkscape:connector-curvature="0" />
    <path
       style="fill:none;stroke:#000000;stroke-width:2.20000005;stroke-linecap:round;stroke-linejoin:round;stroke-miterlimit:4;stroke-opacity:1;stroke-dasharray:none;display:inline"
       d="m 374.25,128.8125 c 0.0117,-0.66667 -0.0537,-0.0833 0.25,-0.625"
       id="path4061-4"
       sodipodi:nodetypes="cc"
       inkscape:connector-curvature="0" />
    <path
       style="fill:none;stroke:#000000;stroke-width:2.20000005;stroke-linecap:round;stroke-linejoin:round;stroke-miterlimit:4;stroke-opacity:1;stroke-dasharray:none;display:inline"
       d="m 381.28098,133.20915 c -2.45616,13.61057 8.58195,12.59372 9.21906,-0.51559 -0.24686,-2.68042 0.0289,7.47221 1.39642,10.74135"
       id="path4333-4"
       sodipodi:nodetypes="ccc"
       inkscape:connector-curvature="0" />
    <path
       style="fill:none;stroke:#000000;stroke-width:2.20000005;stroke-linecap:round;stroke-linejoin:round;stroke-miterlimit:4;stroke-opacity:1;stroke-dasharray:none;display:inline"
       d="m 397.71064,144.62488 c 0.61524,-4.55423 1.0284,-8.40135 2.72487,-12.24848 1.8507,2.50062 3.19806,5.44317 5.34611,8.20895 1.83361,-3.05129 2.53353,-6.13571 3.87464,-10.70616 2.97891,4.89199 3.24554,9.60719 6.77817,14.3224"
       id="path4024-1-40"
       sodipodi:nodetypes="ccccc"
       inkscape:connector-curvature="0" />
    <path
       sodipodi:type="arc"
       style="fill:#000000;fill-opacity:1;stroke:#000000;stroke-width:2.20000005;stroke-linecap:round;stroke-linejoin:round;stroke-miterlimit:4;stroke-opacity:1;stroke-dasharray:none"
       id="path4438"
       sodipodi:cx="421.625"
       sodipodi:cy="141.8125"
       sodipodi:rx="0.5"
       sodipodi:ry="1.1875"
       d="m 422.125,141.8125 a 0.5,1.1875 0 1 1 -1,0 0.5,1.1875 0 1 1 1,0 z"
       transform="matrix(0.99018104,-0.13979095,0.13979095,0.99018104,-15.559185,60.331812)" />
    <path
       style="fill:#000000;fill-opacity:1;stroke:#000000;stroke-width:1px;stroke-linecap:round;stroke-linejoin:round;stroke-opacity:1"
       d="m 421.125,135.5 c -0.20746,-3.24557 0.57355,-6.25673 1.24739,-9.38805 0.33355,-1.55003 1.25369,-3.32868 1.88444,-2.98332 1.66896,0.91382 0.96868,1.83854 -0.45596,5.17593 -0.62826,1.47178 -1.46311,2.89759 -2.67587,7.19544 z"
       id="path4442"
       sodipodi:nodetypes="csssc"
       inkscape:connector-curvature="0" />
    <path
       style="fill:none;stroke:#000000;stroke-width:1.79999995;stroke-linecap:round;stroke-linejoin:round;stroke-miterlimit:4;stroke-opacity:1;stroke-dasharray:none;display:inline"
       d="m 375.76637,180.80171 c 0.69582,-2.22841 -8.08558,-2.71177 -7.61917,1.28642 0.49015,4.2016 8.43462,0.89281 7.05842,5.82767 -0.44574,1.59836 -2.03386,3.39138 -5.597,1.06205"
       id="path4024-1-4-7"
       sodipodi:nodetypes="cssc"
       inkscape:connector-curvature="0" />
    <path
       style="fill:none;stroke:#000000;stroke-width:1.79999995;stroke-linecap:round;stroke-linejoin:round;stroke-miterlimit:4;stroke-opacity:1;stroke-dasharray:none;display:inline"
       d="m 380.55815,181.04039 c -0.98095,8.61746 2.59761,10.87002 4.87652,2.43071 0.4117,8.43887 6.50548,5.23046 4.82354,-3.66143"
       id="path4024-1-4-7-7"
       sodipodi:nodetypes="ccc"
       inkscape:connector-curvature="0" />
    <path
       style="fill:none;stroke:#000000;stroke-width:1.79999995;stroke-linecap:round;stroke-linejoin:round;stroke-miterlimit:4;stroke-opacity:1;stroke-dasharray:none;display:inline"
       d="m 395.3976,187.83981 c -0.009,-1.81236 -0.23082,-5.6586 0.19193,-7.91072 1.32893,-0.0192 3.00034,0.0323 4.82354,0.0509"
       id="path4024-1-4-7-7-3"
       sodipodi:nodetypes="ccc"
       inkscape:connector-curvature="0" />
    <path
       style="fill:none;stroke:#000000;stroke-width:1.79999995;stroke-linecap:round;stroke-linejoin:round;stroke-miterlimit:4;stroke-opacity:1;stroke-dasharray:none;display:inline"
       d="m 395.99515,184.13142 c 1.32893,-0.0192 1.76291,-0.14449 3.58611,-0.12589"
       id="path4024-1-4-7-7-3-6"
       sodipodi:nodetypes="cc"
       inkscape:connector-curvature="0" />
    <path
       style="fill:none;stroke:#000000;stroke-width:1.79999995;stroke-linecap:round;stroke-linejoin:round;stroke-miterlimit:4;stroke-opacity:1;stroke-dasharray:none;display:inline"
       d="m 395.77773,187.795 c 1.32893,-0.0192 3.17713,0.12067 5.00033,0.13927"
       id="path4024-1-4-7-7-3-6-8"
       sodipodi:nodetypes="cc"
       inkscape:connector-curvature="0" />
    <path
       style="fill:none;stroke:#000000;stroke-width:1.79999995;stroke-linecap:round;stroke-linejoin:round;stroke-miterlimit:4;stroke-opacity:1;stroke-dasharray:none;display:inline"
       d="m 406.75766,189.43164 c 0.25616,-1.98914 -0.14244,-6.63087 -0.0732,-8.88299 1.32893,-0.0192 4.50294,-0.32126 6.32614,0.13928"
       id="path4024-1-4-7-7-3-7"
       sodipodi:nodetypes="ccc"
       inkscape:connector-curvature="0" />
    <path
       style="fill:none;stroke:#000000;stroke-width:1.79999995;stroke-linecap:round;stroke-linejoin:round;stroke-miterlimit:4;stroke-opacity:1;stroke-dasharray:none;display:inline"
       d="m 407.26682,184.39742 c 1.32893,-0.0192 2.11646,-0.0561 3.93966,-0.0375"
       id="path4024-1-4-7-7-3-6-80"
       sodipodi:nodetypes="cc"
       inkscape:connector-curvature="0" />
    <path
       style="fill:none;stroke:#000000;stroke-width:1.79999995;stroke-linecap:round;stroke-linejoin:round;stroke-miterlimit:4;stroke-opacity:1;stroke-dasharray:none;display:inline"
       d="m 407.13779,188.8565 c 1.32893,-0.0192 3.70746,-0.32127 5.53066,-0.30267"
       id="path4024-1-4-7-7-3-6-8-5"
       sodipodi:nodetypes="cc"
       inkscape:connector-curvature="0" />
    <path
       style="fill:none;stroke:#000000;stroke-width:1.79999995;stroke-linecap:round;stroke-linejoin:round;stroke-miterlimit:4;stroke-opacity:1;stroke-dasharray:none;display:inline"
       d="m 418.84709,181.34212 c 3.00831,-0.37276 6.35911,-0.32127 9.24297,-0.39106"
       id="path4024-1-4-7-7-3-6-8-5-7"
       sodipodi:nodetypes="cc"
       inkscape:connector-curvature="0" />
    <path
       style="fill:none;stroke:#000000;stroke-width:1.79999995;stroke-linecap:round;stroke-linejoin:round;stroke-miterlimit:4;stroke-opacity:1;stroke-dasharray:none;display:inline"
       d="m 424.18351,189.31326 c 0.25616,-2.51947 -0.23083,-5.39343 -0.60353,-7.64555"
       id="path4024-1-4-7-7-3-7-1"
       sodipodi:nodetypes="cc"
       inkscape:connector-curvature="0" />
    <path
       style="fill:none;stroke:#000000;stroke-width:1.79999995;stroke-linecap:round;stroke-linejoin:round;stroke-miterlimit:4;stroke-opacity:1;stroke-dasharray:none;display:inline"
       d="m 368.99606,196.32353 c 4.18075,-0.37276 9.78439,0.29745 11.98301,0.22766"
       id="path4024-1-4-7-7-3-6-8-5-7-7"
       sodipodi:nodetypes="cc"
       inkscape:connector-curvature="0" />
    <path
       style="fill:none;stroke:#000000;stroke-width:1.79999995;stroke-linecap:round;stroke-linejoin:round;stroke-miterlimit:4;stroke-opacity:1;stroke-dasharray:none;display:inline"
       d="m 372.55777,201.18822 c -1.7218,2.57535 0.17772,7.12535 4.48292,5.13645 1.98357,-0.91637 1.72902,-6.61781 1.71945,-9.42324"
       id="path4024-1-4-7-7-3-7-1-3"
       sodipodi:nodetypes="csc"
       inkscape:connector-curvature="0" />
    <path
       style="fill:none;stroke:#000000;stroke-width:1.79999995;stroke-linecap:round;stroke-linejoin:round;stroke-miterlimit:4;stroke-opacity:1;stroke-dasharray:none;display:inline"
       d="m 383.52487,205.57671 c -0.71611,-1.98914 -0.14244,-6.54248 0.63391,-8.08749 1.41732,-0.8147 4.061,-0.67482 5.8842,-0.21428"
       id="path4024-1-4-7-7-3-7-4"
       sodipodi:nodetypes="ccc"
       inkscape:connector-curvature="0" />
    <path
       style="fill:none;stroke:#000000;stroke-width:1.79999995;stroke-linecap:round;stroke-linejoin:round;stroke-miterlimit:4;stroke-opacity:1;stroke-dasharray:none;display:inline"
       d="m 384.02208,205.11859 c 1.41732,0.59952 3.70746,0.29745 5.61905,-0.12589"
       id="path4024-1-4-7-7-3-6-8-5-0"
       sodipodi:nodetypes="cc"
       inkscape:connector-curvature="0" />
    <path
       style="fill:none;stroke:#000000;stroke-width:1.79999995;stroke-linecap:round;stroke-linejoin:round;stroke-miterlimit:4;stroke-opacity:1;stroke-dasharray:none;display:inline"
       d="m 384.19886,201.05324 c 1.32893,-0.0192 1.58613,0.12068 3.40933,0.13928"
       id="path4024-1-4-7-7-3-6-87"
       sodipodi:nodetypes="cc"
       inkscape:connector-curvature="0" />
    <path
       style="fill:none;stroke:#000000;stroke-width:1.79999995;stroke-linecap:round;stroke-linejoin:round;stroke-miterlimit:4;stroke-opacity:1;stroke-dasharray:none;display:inline"
       d="m 400.13227,197.9895 c -2.30939,-0.99097 -6.2301,-0.85553 -5.85141,2.43547 0.35771,3.10871 7.74008,-0.39525 5.94062,4.74648 -0.35552,1.01587 -1.59283,2.32092 -4.83275,1.17097"
       id="path4024-1-4-7-5"
       sodipodi:nodetypes="cssc"
       inkscape:connector-curvature="0" />
    <path
       style="fill:none;stroke:#000000;stroke-width:1.79999995;stroke-linecap:round;stroke-linejoin:round;stroke-miterlimit:4;stroke-opacity:1;stroke-dasharray:none;display:inline"
       d="m 425.16071,196.8587 c -2.57456,-1.83065 -5.31886,-1.18633 -5.27689,2.12612 0.0483,3.81581 7.14654,-0.13308 5.71965,5.40939 -0.39503,1.53441 -2.91865,2.23253 -5.1863,0.81741"
       id="path4024-1-4-7-5-0"
       sodipodi:nodetypes="cssc"
       inkscape:connector-curvature="0" />
    <path
       style="fill:none;stroke:#000000;stroke-width:1.79999995;stroke-linecap:round;stroke-linejoin:round;stroke-miterlimit:4;stroke-opacity:1;stroke-dasharray:none;display:inline"
       d="m 405.71035,198.77081 c -1.64419,9.36876 5.42602,10.42808 7.13045,-0.57449 0.31246,4.40022 -0.005,4.62849 0.40412,6.98938"
       id="path4024-1-4-7-7-3-7-9"
       sodipodi:nodetypes="ccc"
       inkscape:connector-curvature="0" />
    <path
       sodipodi:type="arc"
       style="fill:#000000;fill-opacity:1;stroke:#000000;stroke-width:4.24345636;stroke-linecap:round;stroke-linejoin:round;stroke-miterlimit:4;stroke-opacity:1;stroke-dasharray:none;display:inline"
       id="path4438-6"
       sodipodi:cx="421.625"
       sodipodi:cy="141.8125"
       sodipodi:rx="0.5"
       sodipodi:ry="1.1875"
       d="m 422.125,141.8125 a 0.5,1.1875 0 1 1 -1,0 0.5,1.1875 0 1 1 1,0 z"
       transform="matrix(0.31592574,0.03661704,-0.18892489,0.54763804,327.52721,112.36816)" />
    <path
       style="fill:#000000;fill-opacity:1;stroke:#000000;stroke-width:1.79999995;stroke-linecap:round;stroke-linejoin:round;stroke-miterlimit:4;stroke-opacity:1;stroke-dasharray:none;display:inline"
       d="m 435.90292,200.95742 c 1.48762,-3.31868 1.66567,-4.47529 2.21078,-5.5957 0.31516,-0.64778 0.74411,-2.4004 1.10855,-2.21317 0.62385,0.3205 -0.15122,1.6758 -0.67314,2.82617 -0.43451,0.9577 -1.14876,1.93496 -2.64619,4.9827 z"
       id="path4442-7"
       sodipodi:nodetypes="csssc"
       inkscape:connector-curvature="0" />
    <path
       sodipodi:type="arc"
       style="fill:#000000;fill-opacity:1;stroke:none"
       id="path4846"
       sodipodi:cx="303.5"
       sodipodi:cy="227.375"
       sodipodi:rx="0.5"
       sodipodi:ry="1"
       d="m 304,227.375 a 0.5,1 0 1 1 -1,0 0.5,1 0 1 1 1,0 z"
       transform="matrix(3.9207416,0,0,3.1629147,-885.97635,-491.51151)" />
    <path
       sodipodi:type="arc"
       style="fill:#000000;fill-opacity:1;stroke:none;display:inline"
       id="path4846-4"
       sodipodi:cx="303.5"
       sodipodi:cy="227.375"
       sodipodi:rx="0.5"
       sodipodi:ry="1"
       d="m 304,227.375 a 0.5,1 0 1 1 -1,0 0.5,1 0 1 1 1,0 z"
       transform="matrix(4.207413,0,0,3.4654614,-958.09315,-559.90974)" />
    <path
       sodipodi:type="arc"
       style="fill:#000000;fill-opacity:1;stroke:none;display:inline"
       id="path4846-7"
       sodipodi:cx="303.5"
       sodipodi:cy="227.375"
       sodipodi:rx="0.5"
       sodipodi:ry="1"
       d="m 304,227.375 a 0.5,1 0 1 1 -1,0 0.5,1 0 1 1 1,0 z"
       transform="matrix(4.1579552,0,0,3.4342751,-866.39472,-533.96851)" />
    <path
       sodipodi:type="arc"
       style="fill:#000000;fill-opacity:1;stroke:none;display:inline"
       id="path4846-4-4"
       sodipodi:cx="303.5"
       sodipodi:cy="227.375"
       sodipodi:rx="0.5"
       sodipodi:ry="1"
       d="m 304,227.375 a 0.5,1 0 1 1 -1,0 0.5,1 0 1 1 1,0 z"
       transform="matrix(4.1445897,0,0,3.3613907,-846.21333,-517.33391)" />
    <path
       style="fill:#000000;fill-opacity:1;stroke:none"
       d="m 321,289.75 c -0.45313,12.21875 0.375,15.8125 2.25,20.75 0.9559,2.51719 3.5096,6.83203 0.25,6.83203 l -12.97379,0 c -0.51367,0 -2.17583,-0.18604 -2.02986,-1.39746 0.0933,-0.77445 2.68601,-1.34864 3.15486,-1.34864 l 9.95231,0 c 0.58789,0 0.59777,-0.74523 0.30664,-1.3789 -2.54464,-5.53854 -3.43085,-11.03269 -3.07227,-23.12695"
       id="path4895"
       sodipodi:nodetypes="csssssssc"
       inkscape:connector-curvature="0" />
    <path
       sodipodi:nodetypes="csssssssc"
       id="path4897"
       d="m 302.73828,289.89649 c -1.57617,10.41211 -0.94649,17.35727 -0.0449,21.0918 0.70314,2.91254 2.72402,5.53911 -0.23828,5.41601 l -12.92496,-0.53711 c -0.51323,-0.0213 -2.17583,-0.18604 -2.02986,-1.39746 0.0933,-0.77445 2.68672,-1.37441 3.15486,-1.34864 l 9.757,0.53711 c 0.587,0.0323 0.527,-0.71729 0.30664,-1.3789 -1.81222,-5.44088 -1.81952,-10.98386 -0.43555,-22.19922"
       style="fill:#000000;fill-opacity:1;stroke:none"
       inkscape:connector-curvature="0" />
    <path
       style="fill:#000000;fill-opacity:1;stroke:none;display:inline"
       d="m 420.37621,293.45507 c -0.69727,11.87695 1.25,17.66797 3.66211,21.18945 0.7608,1.11071 3.05362,3.2368 3.06542,3.68752 0.0308,1.17755 -0.64851,1.63083 -2.27831,1.63083 l -11.50894,0 c -0.51367,0 -2.17583,-0.0884 -2.02986,-1.2998 0.0933,-0.77445 2.68601,-1.34864 3.15486,-1.34864 l 7.31754,0 c 0.58789,0 1.20027,-0.0395 0.11923,-1.55449 -4.30615,-6.03484 -4.07153,-13.98209 -3.6153,-22.21893"
       id="path4895-4"
       sodipodi:nodetypes="cssssssssc"
       inkscape:connector-curvature="0" />
    <path
       sodipodi:nodetypes="cssssssssc"
       id="path4921"
       d="m 395.42504,291.40428 c -3.04102,4.06446 -3.51436,17.15871 -1.94922,22.203 0.96623,3.11406 2.53898,3.19395 2.5857,4.35159 0.0336,0.83183 -0.99691,1.54433 -2.62671,1.54433 l -12.14567,0 c -0.51367,0 -2.17583,-0.18604 -2.02986,-1.39746 0.0933,-0.77445 2.68601,-1.48675 3.15486,-1.48675 l 8.6359,0 c 0.58789,0 0.55967,-0.72908 0.30664,-1.3789 -2.61369,-6.71245 -1.94079,-18.07781 1.80859,-25.75182"
       style="fill:#000000;fill-opacity:1;stroke:none;display:inline"
       inkscape:connector-curvature="0" />
    <path
       style="fill:#000000;fill-opacity:1;stroke:none"
       d="m 345.95752,244.40461 c 5.83394,-2.97357 18.55104,-7.27265 21.19939,-7.94114 1.86751,-0.47139 2.38406,1.34958 0.89769,1.79539 -5.34334,1.60263 -16.02038,5.86856 -22.92572,8.97694"
       id="path4923"
       sodipodi:nodetypes="cssc"
       inkscape:connector-curvature="0" />
    <path
       style="fill:#000000;fill-opacity:1;stroke:none;display:inline"
       d="m 286.24402,246.10054 c -5.95532,-2.10826 -8.33158,-2.80431 -12.0705,-4.14444 -4.21125,-1.50943 -7.80472,-3.04813 -11.13144,-4.07291 -1.84072,-0.56703 -2.99796,1.32506 -1.51917,1.79538 2.53343,0.80575 7.45148,2.93575 11.78897,4.53301 4.33748,1.59725 8.30156,2.93798 12.1035,4.09867"
       id="path4923-1"
       sodipodi:nodetypes="cssssc"
       inkscape:connector-curvature="0" />
    <path
       style="fill:#000000;fill-opacity:1;stroke:none;display:inline"
       d="m 379.47179,259.61391 c -6.85075,1.06581 -16.28789,1.90108 -19.01721,1.79399 -1.9246,-0.0755 -1.89724,-2.09163 -0.35378,-2.25209 5.637,-0.58603 13.23914,-1.02736 19.51574,-2.02357"
       id="path4923-0"
       sodipodi:nodetypes="cssc"
       inkscape:connector-curvature="0" />
    <path
       style="fill:#000000;fill-opacity:1;stroke:none;display:inline"
       d="m 439.32226,260.58571 c 6.09143,1.9118 11.21088,3.19756 17.6069,4.14526 3.21289,0.47606 3.34019,-2.0444 1.80577,-2.27582 -5.48157,-0.82674 -7.16822,-1.53939 -10.68474,-2.43851 -3.51652,-0.89912 -6.88464,-1.68337 -9.08997,-2.81653"
       id="path4923-0-2"
       sodipodi:nodetypes="csssc"
       inkscape:connector-curvature="0" />
    <path
       style="fill:#000000;fill-opacity:1;stroke:none"
       d="m 266.20084,235.18598 c 0.15594,-2.28438 2.4514,-2.45139 2.55498,0.13811 0.0695,1.73733 -0.2584,9.37156 -0.82864,10.80686 -0.90762,2.2845 -2.58522,1.1352 -2.27876,-0.82864 0.62348,-3.9953 0.45475,-8.68555 0.55242,-10.11633 z"
       id="path5013"
       sodipodi:nodetypes="cssss"
       inkscape:connector-curvature="0" />
    <path
       style="fill:#000000;fill-opacity:1;stroke:none;display:inline"
       d="m 365.88545,242.25235 c 1.62538,1.61271 -0.96432,3.54765 -2.49217,1.45434 -1.02506,-1.40442 -4.66154,-5.87761 -5.32883,-8.99867 -0.51395,-2.40388 1.51535,-3.06598 2.15893,-0.92228 1.16271,3.87289 4.40945,7.22375 5.66207,8.46661 z"
       id="path5013-8"
       sodipodi:nodetypes="cssss"
       inkscape:connector-curvature="0" />
    <path
       style="fill:#000000;fill-opacity:1;stroke:none;display:inline"
       d="m 362.25024,255.10347 c -1.24479,-1.92176 0.89741,-3.82338 2.39034,-1.08547 0.83239,1.52653 3.19519,6.0082 3.43054,9.24316 0.17837,2.4517 -1.76206,2.84798 -2.38428,0.48039 -1.0278,-3.91086 -2.56419,-7.29123 -3.4366,-8.63808 z"
       id="path5013-9"
       sodipodi:nodetypes="cssss"
       inkscape:connector-curvature="0" />
    <path
       style="fill:#000000;fill-opacity:1;stroke:none;display:inline"
       d="m 454.40328,258.19769 c 0.19861,1.7239 1.07976,7.05452 0.90585,10.31154 -0.11484,2.15066 -2.05228,2.10165 -2.23058,-0.61605 -0.27099,-4.13059 -1.11811,-8.11937 -0.89111,-9.70794 0.0125,-2.67405 1.86032,-3.07341 2.21584,0.0125 z"
       id="path5013-9-1"
       sodipodi:nodetypes="csscs"
       inkscape:connector-curvature="0" />
    <path
       style="fill:#000000;fill-opacity:1;stroke:none"
       d="m 300.65849,236.25631 c 5.88279,16.41073 27.64488,24.45632 27.96662,0.20716 l -27.96662,-0.20716 z"
       id="path5081"
       sodipodi:nodetypes="ccc"
       inkscape:connector-curvature="0" />
    <path
       style="fill:#000000;fill-opacity:1;stroke:none;display:inline"
       d="m 392.75988,256.29774 c 8.71398,15.16777 26.40969,25.04226 30.59843,0.7931 l -30.59843,-0.7931 z"
       id="path5081-5"
       sodipodi:nodetypes="ccc"
       inkscape:connector-curvature="0" />
  </g>
</svg>
