<?xml version="1.0" encoding="UTF-8" standalone="no"?>
<!-- Created with Inkscape (http://www.inkscape.org/) -->

<svg
   xmlns:dc="http://purl.org/dc/elements/1.1/"
   xmlns:cc="http://creativecommons.org/ns#"
   xmlns:rdf="http://www.w3.org/1999/02/22-rdf-syntax-ns#"
   xmlns:svg="http://www.w3.org/2000/svg"
   xmlns="http://www.w3.org/2000/svg"
   xmlns:xlink="http://www.w3.org/1999/xlink"
   xmlns:sodipodi="http://sodipodi.sourceforge.net/DTD/sodipodi-0.dtd"
   xmlns:inkscape="http://www.inkscape.org/namespaces/inkscape"
   id="svg2"
   version="1.1"
   inkscape:version="0.48.2 r9819"
   width="483"
   height="360"
   sodipodi:docname="silly-hats-only.svg"
   inkscape:export-filename="/home/chris/rejected/silly-hats-only-2.png"
   inkscape:export-xdpi="372.75"
   inkscape:export-ydpi="372.75">
  <metadata
     id="metadata8">
    <rdf:RDF>
      <cc:Work
         rdf:about="">
        <dc:format>image/svg+xml</dc:format>
        <dc:type
           rdf:resource="http://purl.org/dc/dcmitype/StillImage" />
        <dc:title />
      </cc:Work>
    </rdf:RDF>
  </metadata>
  <defs
     id="defs6" />
  <sodipodi:namedview
     pagecolor="#ffffff"
     bordercolor="#666666"
     borderopacity="1"
     objecttolerance="10"
     gridtolerance="10"
     guidetolerance="10"
     inkscape:pageopacity="0"
     inkscape:pageshadow="2"
     inkscape:window-width="1280"
     inkscape:window-height="776"
     id="namedview4"
     showgrid="false"
     borderlayer="true"
     inkscape:showpageshadow="false"
     inkscape:zoom="1.4142136"
     inkscape:cx="268.82503"
     inkscape:cy="175.28872"
     inkscape:window-x="0"
     inkscape:window-y="24"
     inkscape:window-maximized="1"
     inkscape:current-layer="layer2" />
  <g
     inkscape:groupmode="layer"
     id="layer1"
     inkscape:label="raster"
     sodipodi:insensitive="true"
     style="display:none">
    <image
       xlink:href="file:///home/chris/rejected/silly-hats-only.png"
       width="483"
       height="360"
       id="image12"
       x="0"
       y="0" />
  </g>
  <g
     inkscape:groupmode="layer"
     id="layer2"
     inkscape:label="trace"
     style="display:inline">
    <path
       id="path3586"
       transform="matrix(2.275261,0,0,2.275261,-264.11084,-53.187339)"
       style="fill:#000000;fill-opacity:1;fill-rule:evenodd;stroke:none"
       d="m 208.69704,41.520123 c 0,0.921449 -0.74698,1.668432 -1.66843,1.668432 -0.92145,0 -1.66843,-0.746983 -1.66843,-1.668432 0,-0.92145 0.74698,-1.668433 1.66843,-1.668433 0.92145,0 1.66843,0.746983 1.66843,1.668433 z m -0.93514,-10e-7 c 0,0.404986 -0.32831,0.733293 -0.73329,0.733293 -0.40499,0 -0.7333,-0.328307 -0.7333,-0.733293 0,-0.404986 0.32831,-0.733293 0.7333,-0.733293 0.40498,0 0.73329,0.328307 0.73329,0.733293 z" />
    <path
       id="path3590"
       style="fill:#000000;fill-opacity:1;fill-rule:evenodd;stroke:none"
       d="m 154.82715,58.169544 c 0.86107,22.74365 0.96457,26.308087 1.33995,44.379296 0.31854,15.33487 1.92969,19.02222 2.41861,45.96629 29.35849,0.58126 34.27992,-0.01 50.82399,-0.21848 14.44454,-0.18206 25.72977,0.0497 50.94583,-0.91858 -2.11963,-21.1978 -2.94969,-29.69341 -3.04775,-44.62858 -0.13755,-20.947612 -1.24361,-27.05398 -1.96912,-44.898248 -20.33743,-0.01786 -31.25165,-0.09629 -48.96425,0.0669 -17.84009,0.164364 -37.23089,0.175558 -51.54726,0.251402 z m 2.2915,2.58522 c 0.3713,23.049652 1.57129,29.212357 1.66433,41.826286 0.20659,28.00797 1.9697,21.62166 1.66434,43.98356 26.3379,-0.60317 33.0915,-0.13814 48.87577,-0.33708 13.78116,-0.1737 22.104,-0.66006 48.6061,-0.87639 -2.02228,-20.22412 -2.72689,-28.32367 -2.86513,-42.57247 -0.18317,-18.879369 -1.22914,-25.817503 -1.92133,-42.842132 -19.40342,-0.01704 -29.88071,0.165403 -46.77984,0.321098 -17.02077,0.156815 -40.47359,-0.475688 -49.24424,0.497128 z" />
    <path
       style="fill:#000000;fill-opacity:1;stroke:none"
       d="m 209.26907,43.474573 15.34958,15.349577 -2.6695,-0.09534 -14.58686,-14.205509"
       id="path3673" />
    <path
       style="fill:#000000;fill-opacity:1;stroke:none"
       d="m 205.26483,43.379234 -21.2606,15.826271 -3.24152,-0.190678 23.16738,-17.351695"
       id="path3675"
       sodipodi:nodetypes="cccc" />
    <path
       sodipodi:type="arc"
       style="fill:#000000;fill-opacity:1;fill-rule:evenodd;stroke:none"
       id="path3677"
       sodipodi:cx="109.35381"
       sodipodi:cy="190.58263"
       sodipodi:rx="1.8114407"
       sodipodi:ry="1.8114407"
       d="m 111.16525,190.58263 a 1.8114407,1.8114407 0 1 1 -3.62288,0 1.8114407,1.8114407 0 1 1 3.62288,0 z"
       transform="matrix(0.94736842,0,0,0.89473684,5.7554638,20.061328)" />
    <path
       sodipodi:type="arc"
       style="fill:#000000;fill-opacity:1;fill-rule:evenodd;stroke:none"
       id="path3681"
       sodipodi:cx="130.32838"
       sodipodi:cy="190.15359"
       sodipodi:rx="1.6207627"
       sodipodi:ry="1.5730933"
       d="m 131.94915,190.15359 a 1.6207627,1.5730933 0 1 1 -3.24153,0 1.6207627,1.5730933 0 1 1 3.24153,0 z"
       transform="translate(0.09533898,0.19067797)" />
    <path
       sodipodi:type="arc"
       style="fill:#000000;fill-opacity:1;fill-rule:evenodd;stroke:none"
       id="path3683"
       sodipodi:cx="184.71667"
       sodipodi:cy="189.60899"
       sodipodi:rx="1.4831265"
       sodipodi:ry="1.4494191"
       d="m 186.1998,189.60899 a 1.4831265,1.4494191 0 1 1 -2.96625,0 1.4831265,1.4494191 0 1 1 2.96625,0 z" />
    <path
       sodipodi:type="arc"
       style="fill:#000000;fill-opacity:1;fill-rule:evenodd;stroke:none"
       id="path3685"
       sodipodi:cx="206.08717"
       sodipodi:cy="188.93484"
       sodipodi:rx="1.4831265"
       sodipodi:ry="1.6516637"
       d="m 207.5703,188.93484 a 1.4831265,1.6516637 0 1 1 -2.96625,0 1.4831265,1.6516637 0 1 1 2.96625,0 z"
       transform="matrix(1,0,0,0.91836735,-0.26965903,15.558082)" />
    <path
       sodipodi:type="arc"
       style="fill:#000000;fill-opacity:1;fill-rule:evenodd;stroke:none"
       id="path3687"
       sodipodi:cx="276.88824"
       sodipodi:cy="187.86546"
       sodipodi:rx="0.92955512"
       sodipodi:ry="0.90572035"
       d="m 277.8178,187.86546 a 0.92955512,0.90572035 0 1 1 -1.85911,0 0.92955512,0.90572035 0 1 1 1.85911,0 z"
       transform="matrix(1.1014626,0,0,1.1607531,-27.998459,-30.054051)" />
    <path
       sodipodi:type="arc"
       style="fill:#000000;fill-opacity:1;fill-rule:evenodd;stroke:none"
       id="path3689"
       sodipodi:cx="297.00476"
       sodipodi:cy="190.58263"
       sodipodi:rx="1.0248941"
       sodipodi:ry="1.0487288"
       d="m 298.02965,190.58263 a 1.0248941,1.0487288 0 1 1 -2.04978,0 1.0248941,1.0487288 0 1 1 2.04978,0 z"
       transform="matrix(1.0127598,0,0,1.0368731,-4.0519012,-7.2657232)" />
    <path
       sodipodi:type="arc"
       style="fill:#000000;fill-opacity:1;fill-rule:evenodd;stroke:none"
       id="path3691"
       sodipodi:cx="344.36441"
       sodipodi:cy="182.19279"
       sodipodi:rx="1.6207627"
       sodipodi:ry="1.7161018"
       d="m 345.98517,182.19279 a 1.6207627,1.7161018 0 1 1 -3.24152,0 1.6207627,1.7161018 0 1 1 3.24152,0 z"
       transform="translate(-0.09533898,-0.19067797)" />
    <path
       sodipodi:type="arc"
       style="fill:#000000;fill-opacity:1;fill-rule:evenodd;stroke:none"
       id="path3693"
       sodipodi:cx="364.6716"
       sodipodi:cy="183.24152"
       sodipodi:rx="1.6207627"
       sodipodi:ry="1.7161018"
       d="m 366.29236,183.24152 a 1.6207627,1.7161018 0 1 1 -3.24152,0 1.6207627,1.7161018 0 1 1 3.24152,0 z"
       transform="translate(0.38135594,-0.19067797)" />
    <path
       id="path3697"
       transform="matrix(2.3827965,0,0,2.266085,-187.58146,-200.98522)"
       style="fill:#000000;fill-opacity:1;fill-rule:evenodd;stroke:none"
       d="m 137.05437,158.66557 c 0,0.8005 -0.64893,1.44942 -1.44942,1.44942 -0.80049,0 -1.44942,-0.64892 -1.44942,-1.44942 0,-0.80049 0.64893,-1.44942 1.44942,-1.44942 0.80049,0 1.44942,0.64893 1.44942,1.44942 z m -0.7835,-0.0298 c 0,0.36137 -0.28548,0.65431 -0.63763,0.65431 -0.35215,0 -0.63763,-0.29294 -0.63763,-0.65431 0,-0.36136 0.28548,-0.65431 0.63763,-0.65431 0.35215,0 0.63763,0.29295 0.63763,0.65431 z"
       sodipodi:nodetypes="csssscssss" />
    <path
       id="path3708"
       style="fill:#000000;fill-opacity:1;fill-rule:evenodd;stroke:none"
       d="m 133.14397,189.87847 c -0.21723,4.85533 -3.43392,7.32562 -7.85332,7.64809 -4.71265,0.34387 -8.24087,-2.89939 -7.85333,-7.64809 0.35303,-4.3256 3.6316,-7.53519 7.85333,-7.64808 4.85724,-0.12989 8.0591,3.04852 7.85332,7.64808 z m 1.75028,0.0661 c -0.3449,5.51188 -3.9646,8.7605 -9.7363,9.34025 -6.13362,0.61611 -9.65269,-2.81958 -9.53829,-8.54814 0.1286,-6.43897 4.32221,-10.6253 10.06636,-10.33038 6.02781,0.30951 9.52591,4.46163 9.20823,9.53827 z" />
    <path
       id="path3711"
       style="fill:#000000;fill-opacity:1;fill-rule:evenodd;stroke:none"
       d="m 111.9083,189.60078 c -0.0526,4.58291 -2.45526,8.5975 -8.39282,8.53102 -5.231075,-0.0586 -8.406138,-3.95593 -8.392835,-8.53102 0.01259,-4.32936 3.244122,-7.61216 8.876365,-7.84024 5.27035,-0.21343 7.96261,3.19199 7.90929,7.84024 z m 1.80241,0.84227 c -0.39969,5.74701 -4.26756,9.56378 -9.89018,9.77399 -5.937581,0.222 -10.122709,-4.43496 -10.286941,-10.30301 -0.177902,-6.3565 4.33551,-10.50459 10.088561,-10.43526 5.81754,0.0701 10.54056,4.39027 10.08856,10.96428 z" />
    <path
       style="fill:#000000;fill-opacity:1;stroke:none"
       d="m 105.05164,204.02541 c 1.92692,-0.95645 4.39997,-0.87033 6.65028,-1.09487 2.66153,-0.26558 3.69159,-0.4061 7.1262,0.22492 1.0616,0.19504 0.76058,1.31194 -0.53628,1.13215 -1.59212,-0.22073 -3.20051,-0.23691 -6.43896,-0.008 -2.52342,0.17801 -4.67587,0.37323 -6.59864,1.16447 -0.67316,0.27701 -1.53224,-0.75822 -0.2026,-1.41821 l 0,4e-5 0,-5e-4 z"
       id="path3726"
       sodipodi:nodetypes="csssssscc" />
    <path
       style="fill:#000000;fill-opacity:1;stroke:none"
       d="m 125.08475,176.75851 0.47669,1.2394 c -11.26103,2.45444 -20.1648,1.50898 -30.031778,0 l 1.144068,-1.43009 c 7.72568,1.72885 19.33569,1.25684 28.41102,0.19069 z"
       id="path3728"
       sodipodi:nodetypes="ccccc" />
    <path
       style="fill:#000000;fill-opacity:1;stroke:none"
       d="m 97.481862,174.81143 c 9.167478,0.68397 17.910258,0.7309 26.359198,0.33706 l 1.3483,1.3483 c -1.22544,0.90858 -26.927319,0.88184 -28.718721,0.0674 l 0.876393,-1.48312 0.13483,-0.26965 0,1e-5 z"
       id="path3730"
       sodipodi:nodetypes="ccccccc" />
    <path
       style="fill:#000000;fill-opacity:1;stroke:none"
       d="m 111.43673,169.01867 c 9.15419,-0.33576 10.93745,5.13015 13.1459,8.62418 0.37278,0.58977 0.53335,0.31751 1.66889,0.12359 0.34665,-0.0592 0.75572,-0.31694 0.49163,-0.73153 -3.37025,-5.29091 -7.28865,-9.93119 -15.05543,-10.00165 -8.03143,-0.0729 -12.455371,3.89115 -16.161922,8.95697 -0.325792,0.44526 -0.455069,0.76636 -0.342732,0.88109 0.80179,0.81888 1.337764,0.79038 1.692112,0.36704 4.206522,-5.02556 4.666712,-7.85677 14.561552,-8.21969 z"
       id="path3732"
       sodipodi:nodetypes="cssssssss" />
    <path
       style="fill:#000000;fill-opacity:1;stroke:none"
       d="m 97.734835,177.57322 c 0,0 -5.375,5.77201 -5.375,13.42678 0,9.77972 6.237437,19.25 19.140165,19.25 11.73225,0 15.82584,-9.80982 16.44194,-12 l 1.67958,-0.5752 c -0.25459,4.95722 -5.83434,14.65915 -18.24652,14.65915 -16.027972,0 -21.058058,-12.86752 -21.058058,-21.7304 0,-7.625 5.937969,-14.27454 5.937969,-14.27454"
       id="path3734"
       sodipodi:nodetypes="cssccssc" />
    <path
       style="fill:#000000;fill-opacity:1;stroke:none"
       d="m 133.11285,159.62362 -11.13693,12.46275 1.5026,1.76777 11.31371,-13.08148"
       id="path3736" />
    <path
       style="fill:#000000;fill-opacity:1;stroke:none"
       d="m 123.875,177.9375 c 0.89596,1.15632 1.20345,2.01839 1.625,2.9375 l 2.3125,0.5625 c -0.51921,-1.51763 -1.23138,-3.0031 -2.25,-4.4375"
       id="path3738"
       sodipodi:nodetypes="cccc" />
    <path
       id="path3742"
       style="fill:#000000;fill-opacity:1;fill-rule:evenodd;stroke:none"
       d="m 111.63448,167.75534 c -1.06066,-13.34664 -13.257172,-22.36225 -27.753938,-22.36225 -12.639534,0 -12.727923,4.37523 -12.727923,6.67333 0,3.22647 3.181981,6.14298 6.98268,6.14298 3.332096,0 4.444386,-0.67493 5.901493,-2.11059 0.908045,-0.89468 2.812276,-0.81732 2.802538,0.6446 -0.01592,2.3894 1.460629,2.61504 3.140008,3.32215 1.679378,0.7071 4.311381,-0.18237 4.986359,-1.30974 0.847272,-1.41514 2.698065,-1.32675 2.86948,0.0464 0.135429,1.08488 0.957107,2.09543 2.017767,2.80254 1.060656,0.70711 2.866696,0.41937 3.780176,-0.24908 0.6188,-0.45282 1.72609,-0.0898 1.83563,0.48806 0.16296,0.85969 0.53125,1.0625 0.78125,1.34375 0.25,0.28125 0.43521,0.49118 0.9375,0.53125 0.45703,0.0365 1.1385,0.75171 1.03125,1.25 -0.34999,1.62607 0.59375,3.03125 0.59375,3.03125 m 4.67814,-0.0679 c -0.73928,-9.73788 -4.74047,-13.91745 -10.17539,-18.46244 -6.766684,-5.65869 -15.846623,-5.69791 -20.885533,-5.69791 -7.600724,0 -13.575194,2.67428 -13.575194,7.80851 0,5.69606 4.502246,8.58822 8.744164,8.6665 2.661056,0.0491 5.127689,-0.71654 7.165738,-2.21415 0.526028,2.36482 2.147757,3.34272 4.861359,4.06586 2.0699,0.5516 4.949138,0.0776 6.540738,-1.59099 0.505417,1.18472 2.135779,2.4311 2.916815,2.65165 1.419623,0.40089 3.533823,0.35266 5.038133,-0.26516 0.16201,0.91699 0.77965,1.43138 1.15932,1.69499 0.52806,0.36667 0.97749,0.52053 1.84589,0.6031 -0.19923,1.23426 -0.0539,2.23885 0.24509,3.14093"
       sodipodi:nodetypes="cssssssssssssssccsssscscscscc" />
    <path
       style="fill:#000000;fill-opacity:1;stroke:none"
       d="m 129,259.53125 c 3.8125,-8.375 3.92456,-15.39993 3.4375,-18.8125 -1.00176,-7.0187 -6.41605,-16.99464 -8.29105,-18.86964 -1.52069,-1.52069 -1.96431,1.45803 -0.96431,2.70803 1,1.25 6.81786,10.22411 7.56786,17.84911 0.75,7.625 -2.25,14.875 -2.25,14.875"
       id="path3747"
       sodipodi:nodetypes="cssssc" />
    <path
       style="fill:#000000;fill-opacity:1;stroke:none"
       d="m 99.75,244.03125 c -2.856321,-3.01245 -0.875791,-14.24947 1.625,-18.25 1.23248,-1.97161 0.5,-3.75 -0.75,-2.25 -1.25,1.5 -4.067154,8.37137 -4.25,12.375 -0.211224,4.625 0.369259,9.375 3.125,13"
       id="path3749"
       sodipodi:nodetypes="csssc" />
    <path
       id="path3751"
       style="fill:#000000;fill-opacity:1;fill-rule:evenodd;stroke:none"
       d="m 110.38436,212.11899 c -7.21466,0.50815 -11.98255,10.64259 -11.731913,27.05195 0.22217,14.66393 2.133073,24.13194 5.865953,29.19741 3.73289,5.06546 6.66146,6.04061 11.99416,5.90731 5.33269,-0.1333 7.82311,-0.22798 10.30742,-4.22074 3.69577,-5.93979 3.32999,-12.59542 3.06336,-23.77119 -0.1718,-7.20119 -1.99475,-17.02282 -3.5981,-21.95563 -1.73312,-5.33208 -6.96588,-12.83843 -15.90088,-12.20911 z m 0.99064,1.53726 c -6.46422,0.47819 -11.235,9.86258 -11,25.25 0.20831,13.75069 1.91161,23.46339 5.41161,28.21339 3.5,4.75 5.58839,5.16161 10.58839,5.03661 5,-0.125 7.25218,-0.45692 9.25,-3.78661 3.375,-5.625 2.625,-15.46339 2.375,-22.21339 -0.25,-6.75 -1.62168,-16.87439 -3.125,-21.5 -1.625,-5 -8.22191,-11.39045 -13.5,-11 z"
       sodipodi:nodetypes="ccssssssccssssss" />
    <path
       style="fill:#000000;fill-opacity:1;stroke:none"
       d="m 158.21514,208.14882 c -2.66383,3.61245 -0.55843,6.14529 -0.1984,6.70944 0.0982,0.15386 0.3158,0.13259 0.2754,0.028 -0.0663,-0.17178 -0.28577,-0.10779 -0.33443,0.11504 -0.53091,2.43134 -0.0723,3.90719 1.08412,5.79798 0.4536,1.88718 1.52573,2.27898 2.64566,3.20073 0.91216,0.7103 -0.007,1.38883 -0.75,1.03125 -1.22118,-0.58735 -2.75527,-2.36505 -2.6875,-3.9375 0.0243,-0.56284 1.23311,-1.95773 1.89063,-0.79688 0.68029,1.20105 -1.32664,1.82959 -2.01563,0.85938 -1.53125,-2.15625 -2.0625,-4.1875 -1.5625,-6.03125 0.36624,-1.35051 2.54609,-2.33013 2.93214,-0.63415 0.50583,2.22222 -2.05541,1.46735 -2.74464,0.6654 -0.92067,-1.07123 -1.59062,-4.77822 0.15625,-7.49995"
       id="path3754"
       sodipodi:nodetypes="csssccsssssssc" />
    <path
       style="fill:#000000;fill-opacity:1;stroke:none"
       d="m 178.25,174.25 c -0.91248,-2.206 -2.39731,-4.06492 -4.48169,-4.54467 C 171.68393,169.22558 169,170.125 166.75,172.375 c -4.83235,4.83235 -5.46339,10.6875 -3.21339,16.875 1.94542,5.34991 5.24675,14.73495 0.90089,18.375 -2.68486,2.24881 -6.1875,1.65625 -8.96875,0.25 -2.78125,-1.40625 -4.15625,-4.0625 -5.15625,-5.875 -2,-3.625 -1.92233,-15.4375 1.45267,-22.1875 1.6875,-3.375 3.14003,-6.84846 6.40173,-10.51923 3.2617,-3.67076 8.0674,-7.47633 16.7238,-7.47633 7.77433,0 10.97625,3.72233 14.15618,10.04243 l -2.17188,0.0156 c -1.5699,-5.49789 -7.05788,-8.55713 -12.125,-8.375 -4.19547,0.1508 -7.39859,1.26017 -10.36535,3.1131 -2.96676,1.85292 -5.54059,4.54266 -8.19715,8.8244 -5.3125,8.5625 -6.0625,19.25 -4.9375,23.375 1.125,4.125 4.25156,8.10113 8.25,8.375 4.5,0.3125 5.64162,-2.8353 5.625,-6 -0.0303,-5.77665 -4.23483,-9.85279 -4.39645,-18.5625 -0.0603,-3.25184 0.77145,-7.0625 3.1777,-10.14063 2.40625,-3.07812 5.89924,-4.55335 8.40625,-4.54687 4.3205,0.0112 6.15825,1.98221 7.9375,5.5625"
       id="path3756"
       sodipodi:nodetypes="csssssssssccsssssssssc" />
    <path
       style="fill:#000000;fill-opacity:1;stroke:#000000;stroke-width:0.1;stroke-linecap:butt;stroke-linejoin:miter;stroke-miterlimit:4;stroke-opacity:1;stroke-dasharray:none"
       d="m 200.625,171.1875 c 0.375,-4.5 4.875,-8.4375 12.375,-8.3125 7.5,0.125 11.5,4.75 11.625,7.625 0.125,2.875 -2.1875,9.0625 -1.9375,13.6875 0.25,4.625 3.00051,7.6875 9.5625,7.6875 3.50056,0 6.53125,-2.1875 8.1875,-4.875 1.65625,-2.6875 1.9375,-5.8125 1.9375,-8.75 0,-5.875 -3.125,-12.3125 -8.5,-17.1875 -5.375,-4.875 -12.34911,-6.53661 -20.84911,-6.16161 -8.5,0.375 -11.6009,2.66468 -15.02589,5.22411 -3.43685,2.5683 -5.59941,6.60679 -6,11.5625 l 2.5,0.125 c 0.33945,-5.16953 2.3152,-9.26405 7.625,-12 4.35608,-2.24454 8.64821,-2.90721 13.18894,-2.98028 5.91098,-0.0951 8.53697,0.92841 11.64501,2.3035 2.69822,1.19378 5.27617,2.02043 9.42152,8.08312 2.56355,3.74927 3.83516,6.09378 3.93203,11.65616 0.15237,8.7489 -5.56001,10.89381 -8.3125,10.9375 -4.56235,0.0724 -7.4375,-1.75 -7.25,-7.1875 0.22155,-6.49893 2.0625,-7.0625 1.875,-12.5625 -0.1284,-3.76652 -4.74978,-9.3125 -13.25,-9.3125 -9.88221,0 -14.04047,5.23157 -14.75,10.5625"
       id="path3616"
       sodipodi:nodetypes="csssssssssccsssssssssc" />
    <path
       id="path3620"
       style="fill:#000000;fill-opacity:1;fill-rule:evenodd;stroke:none"
       d="m 174.8125,176.25 c 7.59438,-1.68464 7.79152,-1.53994 12.50712,-2.42925 3.45242,-0.65108 3.57467,-0.2501 12.99288,-0.88325 -9.23052,1.5258 -8.89485,0.50249 -12.18501,1.1172 -3.29016,0.61471 -4.26865,1.42994 -13.31499,2.1953 z m 25.0625,-5.375 0.8701,-1.73577 c 3.06771,0.95082 4.31587,1.79809 4.31587,3.21231 0,1.41421 -0.5455,2.51593 -3.10876,2.6927 -2.56326,0.17678 -6.68896,0.60236 -12.94759,1.25889 -6.18719,0.64904 -13.12077,1.33287 -15.61885,1.93382 -2.81326,0.67677 -3.61542,-3.86833 -0.6276,-4.00337 2.59525,-0.1173 5.4104,-1.12248 5.52113,-1.52849 l 1.65728,0.57453 c 5.52114,-2.275 13.60478,-2.86224 19.93842,-2.40462 z"
       sodipodi:nodetypes="cscscccsssssccc" />
    <path
       id="path3626"
       style="fill:#000000;fill-opacity:1;fill-rule:evenodd;stroke:none"
       d="m 189.50462,188.70339 c -0.31388,5.68358 -4.84552,10.09796 -9.94369,9.81109 -5.10573,-0.28729 -7.87642,-2.58201 -8.79463,-7.77816 -1.2455,-7.04824 1.62534,-11.4216 8.70624,-11.57887 6.04154,-0.13419 10.32818,4.1844 10.03208,9.54594 z m -2.01979,0.1975 c -0.28228,5.09847 -3.71803,8.08435 -8.11872,7.75444 -4.17349,-0.31288 -6.92391,-3.70162 -7.23483,-7.22411 -0.35786,-4.05429 0.85847,-8.45714 7.41161,-8.28478 5.11496,0.13453 8.2176,2.77552 7.94194,7.75445 z" />
    <path
       id="path3632"
       transform="matrix(0.9270039,0,0,0.93651676,14.841213,12.591914)"
       style="fill:#000000;fill-opacity:1;fill-rule:evenodd;stroke:none"
       d="m 211.49243,188.47416 c -0.25752,5.74944 -5.43051,9.58041 -11.77653,9.58041 -6.34602,0 -10.64237,-4.10425 -10.537,-9.86355 0.11145,-6.09117 4.8906,-10.67549 11.10909,-10.71296 6.80737,-0.041 11.48687,4.6906 11.20444,10.9961 z m -1.81261,-0.4719 c 0.0409,4.60143 -4.68252,7.58278 -9.34415,8.16423 -4.91299,0.61281 -9.23337,-3.08914 -9.34415,-8.35298 -0.10474,-4.97538 3.85549,-8.40882 8.86741,-8.44737 5.34717,-0.0411 9.77657,3.65405 9.82089,8.63612 z" />
    <path
       style="fill:#000000;fill-opacity:1;stroke:none"
       d="m 200.39339,173.88447 c 0.70083,0.5272 3.92621,4.92771 3.87744,6.46399 l 1.68382,0.92494 c -0.40513,-2.9389 -1.79338,-5.76886 -4.20603,-7.68442"
       id="path3637"
       sodipodi:nodetypes="cccc" />
    <path
       style="fill:#000000;fill-opacity:1;stroke:none"
       d="m 174.39021,177.2129 c -2.47487,3.0052 -5.12653,7.33623 -5.12653,13.34663 0,3.00521 0.8176,8.47779 3.36982,12.76088 2.55222,4.28309 8.61846,7.1254 15.28013,7.03812 6.41418,-0.084 9.61992,-2.41801 12.43468,-4.4994 4.70157,-3.47659 4.8691,-8.88049 4.88943,-9.81951 l 1.85616,-1.23744 c -0.31644,5.62071 -1.17141,9.04409 -4.80562,11.97479 -3.41029,2.75014 -8.62166,5.26518 -13.49077,5.26093 -6.27557,-0.005 -12.39646,-1.2011 -16.17506,-5.81742 -3.4194,-4.1775 -5.12652,-8.58933 -5.12652,-15.74933 0,-8.3085 4.86135,-13.70019 4.86135,-13.70019"
       id="path3639"
       sodipodi:nodetypes="cssssccssssc" />
    <path
       style="fill:#000000;fill-opacity:1;stroke:none"
       d="m 234.98042,190.25018 c 0.3295,0.8451 -0.0678,1.8063 -0.75666,2.69362 1.55673,0.92292 1.87943,3.73558 0.47052,5.4381 0.75686,1.14874 1.02679,3.95193 0.55131,4.99395 1.4849,2.38118 0.48567,5.51971 -1.45841,7.11526 -0.99598,0.81742 -1.57845,-0.68587 -0.88388,-0.97227 1.72623,-0.7118 3.13454,-3.30711 1.54679,-5.48008 0,0 -1.65439,1.14279 -1.98115,-0.32452 -0.3767,-1.69154 2.06954,-1.0013 2.06954,-1.0013 0.74914,-0.88705 0.0494,-2.45722 -0.2241,-3.44715 0,0 -1.42735,1.35724 -1.9414,-0.30936 -0.48372,-1.56827 1.63518,-1.41421 1.63518,-1.41421 1.24776,-1.18357 0.8707,-2.0091 -0.0549,-3.67792 0.179,0.95338 -2.20411,1.51675 -2.46415,0.01 -0.29009,-1.68108 1.98874,-1.67939 1.98874,-1.67939 0.38002,-0.48439 0.76877,-0.96528 0.57452,-1.67938"
       id="path3645"
       sodipodi:nodetypes="ccccsscsccsccscc" />
    <path
       style="fill:#000000;fill-opacity:1;stroke:none"
       d="m 197.15022,202.05003 c 0.76934,0.88173 -0.53034,2.16551 -2.3865,0.83969 -1.07887,-0.77062 -3.62393,-0.7955 -6.01041,-0.53034 -2.38649,0.26517 -2.5974,0.42649 -4.33102,1.45841 -1.85616,1.10486 -3.29501,0.29962 -2.07713,-0.83969 1.37002,-1.28163 3.8007,-1.81196 6.80591,-1.98874 3.0052,-0.17678 6.8719,-0.23125 7.99915,1.06067 z"
       id="path3647"
       sodipodi:nodetypes="cssssss" />
    <path
       id="path3653"
       style="fill:#000000;fill-opacity:1;fill-rule:evenodd;stroke:none"
       d="m 202.76562,221.54687 c 3.29606,6.34944 4.27099,12.78784 4.35938,25.32813 0.052,7.37481 -0.73777,13.43888 -3.27934,17.74764 -2.54156,4.30875 -6.83494,6.86219 -12.02244,6.86219 -5.1875,0 -9.36963,-1.40521 -12.07812,-6.64116 -2.70849,-5.23594 -3.76655,-14.03745 -3.76655,-23.34995 0,-9.3125 1.27682,-16.52145 3.6728,-21.75582 2.39599,-5.23438 5.29243,-9.1129 8.97365,-9.1129 6.125,0 11.77451,6.36387 14.14062,10.92187 z m -0.44469,4.36801 c 1.95956,5.25104 2.36094,9.35781 2.49719,20.86465 0.10585,8.93985 -0.40742,13.17502 -2.58558,16.25845 -2.97589,4.21272 -4.848,5.80644 -10.60661,6.01042 -5.7338,0.20309 -9.10399,-1.76777 -11.57886,-8.48529 -2.47488,-6.71751 -2.81636,-28.14143 -0.28662,-35.15083 2.57843,-7.1443 4.41314,-11.92355 8.94867,-12.57888 3.53834,-0.51125 10.00214,3.40862 13.61181,13.08148 z" />
    <path
       style="fill:#000000;fill-opacity:1;stroke:none"
       d="m 182.69871,227.24071 c 0.33705,-2.78873 2.05246,-1.49215 1.76777,0.88388 -0.30023,2.50573 -0.0381,15.61204 0.61872,18.11961 1.62926,6.21992 -0.72704,8.15011 -1.5026,2.91682 -0.98384,-6.6387 -1.71422,-15.05013 -0.88389,-21.92031 z"
       id="path3655"
       sodipodi:nodetypes="cssss" />
    <path
       style="fill:#000000;fill-opacity:1;stroke:none"
       d="m 185.17359,247.57002 c 0.76332,1.99188 2.33915,3.8632 3.18198,4.33103 1.35128,0.75006 0.19793,2.65737 -1.06066,1.76777 -1.07,-0.7563 -1.71792,-1.95383 -3.00521,-3.97748"
       id="path3657"
       sodipodi:nodetypes="cssc" />
    <path
       style="fill:#000000;fill-opacity:1;stroke:none"
       d="m 185.125,250.1875 c 0.9375,1.625 1.3726,4.74867 0.75,6 -0.63549,1.27723 -2.44477,0.22618 -1.8125,-0.9375 0.51366,-0.94537 0.25592,-2.35132 0.125,-4.8125"
       id="path3659"
       sodipodi:nodetypes="cssc" />
    <path
       style="fill:#000000;fill-opacity:1;stroke:none"
       d="m 184.8125,250.875 c -1.41078,1.4666 -2.625,1.25 -3.9375,1.375 -0.8666,0.0825 -1.29534,-1.32953 -0.25,-1.75 0.97045,-0.39034 1.63724,-0.008 3.5,-1.375"
       id="path3661"
       sodipodi:nodetypes="cssc" />
    <path
       id="path3666"
       style="fill:#000000;fill-opacity:1;fill-rule:evenodd;stroke:none"
       d="m 280.27945,174.82641 c 6.93401,0.59006 17.8571,1.50442 24.9697,3.31456 0.44892,0.11425 0.50193,-0.1208 0.0442,-0.22097 -10.32646,-2.25993 -17.01223,-2.51521 -24.86837,-3.28553 -0.50667,-0.0497 -0.54283,0.15813 -0.14553,0.19194 z m 3.57412,-1.07641 c 7.67962,-0.0179 15.2229,1.01215 22.43306,2.52145 l 0.5,-1.10984 c 2.94872,1.71621 3.3162,1.93002 2.57322,3.78033 -0.59902,1.49179 -0.86221,1.53033 -6.73483,0.18306 -2.94679,-0.67604 -17.03443,-1.93562 -19.66161,-2.16161 -5.8125,-0.5 -6.58622,-0.56378 -6.25,-2.75 0.33703,-2.19145 0.91269,-1.82767 7.17678,-1.28661 l -0.0366,0.82322 -2e-5,0 z"
       sodipodi:nodetypes="csssccccssssccc" />
    <path
       style="fill:#000000;fill-opacity:1;stroke:none"
       d="m 284.9375,174.3125 0.5,-24.25 c 8.72408,0.0414 18.31418,2.15431 23.25,5.9375 l -3.625,20.25 2.0625,0.875 c 0,0 3.75,-20.75 3.875,-21.5625 0.125,-0.8125 -0.10595,-1.49532 -0.8125,-2 -2.1875,-1.5625 -6.63062,-2.89553 -11.5,-4.3125 -6.40515,-1.86388 -12.0625,-1.5 -13.1875,-1.625 -0.90445,-0.10049 -1.9375,0.25 -2,1 -0.0625,0.75 -0.375,25.375 -0.375,25.375 l 1.8125,0.3125 z"
       id="path3668"
       sodipodi:nodetypes="cccccssssscc" />
    <path
       style="fill:#000000;fill-opacity:1;stroke:none"
       d="m 295.92859,203.92783 c -0.69619,-0.10699 -1.90478,-0.58101 -3.81618,-0.94561 -1.9114,-0.3646 -3.27135,-0.25856 -4.02265,-0.25856 -1.5026,0 -1.98429,-1.49252 0.73614,-1.57647 1.03124,-0.0318 2.33722,0.32569 4.19888,0.62458 1.86167,0.29889 2.34969,0.45713 3.38728,0.84141 1.80856,0.66981 1.52482,1.62327 -0.48347,1.31465 z"
       id="path3671"
       sodipodi:nodetypes="cssssss" />
    <path
       id="path3678"
       style="fill:#000000;fill-opacity:1;fill-rule:evenodd;stroke:none"
       d="m 289.1875,187.6875 c -0.38647,5.89166 -4.74609,9.61349 -9.33839,9.13572 -5.74366,-0.59755 -9.02998,-3.94216 -8.88572,-9.22411 0.15189,-5.56165 4.3683,-9.23151 9.41161,-8.92233 4.76024,0.0577 9.09985,4.63015 8.8125,9.01072 z m -1.82448,0.5625 c -0.39309,4.31781 -3.58558,7.10985 -7.6389,6.81172 -3.91369,-0.28785 -7.21036,-3.62613 -7.03535,-7.68672 0.16521,-3.83289 2.80766,-6.75938 7.12374,-7.18672 3.55877,-0.35235 7.91375,4.07178 7.55051,8.06172 z"
       sodipodi:nodetypes="csscscssss" />
    <path
       id="path3684"
       transform="matrix(0.97110815,0,0,0.99104275,8.9536437,1.6086044)"
       style="fill:#000000;fill-opacity:1;fill-rule:evenodd;stroke:none"
       d="m 309.25242,189.36549 c 0,5.44293 -4.42424,9.40937 -9.78481,9.49856 -5.90583,0.0983 -10.44166,-4.05922 -10.2399,-9.49856 0.18203,-4.90781 4.60732,-9.21078 9.87582,-9.23099 4.81529,-0.0185 10.14889,3.78806 10.14889,9.23099 z m -1.7297,0.35675 c 0,3.81478 -3.94057,7.26876 -8.46468,7.26876 -4.52411,0 -8.00959,-3.45398 -8.00959,-7.7147 0,-4.2607 3.75854,-7.26876 8.28265,-7.26876 4.52411,0 8.19162,3.98911 8.19162,7.7147 z"
       sodipodi:nodetypes="csssscssss" />
    <path
       style="fill:#000000;fill-opacity:1;stroke:none"
       d="m 279.30718,175.88707 c -0.69674,1.08426 -1.10265,2.02667 -1.43632,3.53553 l 1.8606,-0.0884 c 0.12343,-0.91025 0.85376,-2.92073 1.34793,-3.15989"
       id="path3688"
       sodipodi:nodetypes="cccc" />
    <path
       style="fill:#000000;fill-opacity:1;stroke:none"
       d="m 277.98135,195.50928 c -0.7955,4.33103 0.88388,7.22576 3.48029,9.74482 2.59641,2.51907 6.19824,3.60183 11.28057,3.60183 5.34749,0 9.67853,-2.03293 12.28598,-6.06565 2.39978,-3.71152 3.49134,-6.75641 3.35876,-11.70041 -0.20152,-7.51499 -0.53109,-4.15047 -1.26195,-6.46487 -0.75,-2.375 -1.375,-5.5625 -1.375,-5.5625 l 1.5625,-0.0366 c 0.23998,1.57322 0.4375,3.22411 0.96094,5.05224 0.52344,1.82812 1.82031,4.79687 1.85156,6.67187 0.0312,1.875 -0.27228,7.22783 -2.62683,11.62574 -2.35453,4.39791 -6.76004,7.85163 -14.22563,8.07117 -7.23901,0.21288 -11.12004,-1.67046 -13.90242,-4.65166 -3.62945,-3.8888 -3.435,-7.68545 -3.06814,-10.90467"
       id="path3690"
       sodipodi:nodetypes="csssssccsssssc" />
    <path
       id="path3696"
       style="fill:#000000;fill-opacity:1;fill-rule:evenodd;stroke:none"
       d="m 303.625,216.75 c 2.60625,4.03839 4.84614,9.13994 5.99176,15.6128 1.14561,6.47285 1.19696,14.31701 0.13324,21.0122 -2.125,13.375 -6,19.75 -14.75,19.875 -8.75,0.125 -12,-7 -13.75,-11.375 -1.75,-4.375 -2,-18.75 -0.375,-26.25 1.625,-7.5 2.97761,-17.69647 4.92678,-20.4375 2,-2.8125 2.41161,-5.40089 7.28661,-5.40089 4.875,0 7.72903,2.61303 10.53661,6.96339 z m -1.13756,1.95711 c 2.24977,3.67633 3.59693,6.25508 4.87981,12.88222 1.28287,6.62714 1.4706,18.01123 -0.0289,26.12406 -2.37868,12.86979 -9.54336,13.34981 -13.0455,13.375 -5.09099,0.0366 -8.39571,-3.21598 -10.50628,-7.91789 -2.0756,-4.62401 -3.34093,-14.1524 -0.75888,-27.34835 0.66524,-3.39981 1.70873,-9.96501 2.35102,-12.91039 0.64228,-2.94538 1.61412,-5.86134 3.49625,-8.66176 1.93859,-2.88444 3.63128,-2.75 6.64645,-2.06694 2.89778,0.65647 4.99875,3.3094 6.96599,6.52405 z" />
    <path
       style="fill:#000000;fill-opacity:1;stroke:none"
       d="m 304.32351,229.86248 c 0.5659,5.4924 1.21819,7.79503 1.39428,12.73151 0.17609,4.93648 -0.11508,9.50593 -0.51283,10.27933 -0.87451,1.70044 -3.79509,0.27496 -1.94454,-1.59099 0.9571,-0.96507 0.76789,-9.03266 0.067,-14.61639 -0.23217,-1.84951 -0.46999,-6.16697 -0.62968,-6.86753 -0.44724,-1.96197 -1.34472,-3.02817 -0.0254,-3.42877 0.61843,-0.18777 1.23209,0.0519 1.38354,0.95945 0.0805,0.48233 0.18361,1.71789 0.26763,2.53339 z"
       id="path3698"
       sodipodi:nodetypes="cssssssss" />
    <path
       style="fill:#000000;fill-opacity:1;stroke:none"
       d="m 304.01172,251.5696 c -2.0574,-0.69821 -3.5583,-0.76121 -4.64039,-0.70711 -1.76776,0.0884 -1.65637,1.84973 -0.30936,1.96665 1.05796,0.0918 2.69381,-0.47187 4.28684,0.30935"
       id="path3700"
       sodipodi:nodetypes="cssc" />
    <path
       style="fill:#000000;fill-opacity:1;stroke:none"
       d="m 305.04576,251.625 c 0.59375,1.375 0.58785,3.59322 0.53125,4.25 -0.1562,1.8125 -1.82974,2.0269 -1.70201,0.0937 0.0553,-0.8369 -0.43288,-2.61766 0,-3.53125"
       id="path3702"
       sodipodi:nodetypes="cssc" />
    <path
       style="fill:#000000;fill-opacity:1;stroke:none"
       d="m 304.21875,253.15625 c -0.40625,2.0625 -2.25,4.0625 -3,4.5625 -1.1767,0.78446 -1.84698,-0.53158 -1.06786,-1.40625 0.71396,-0.80152 2.24886,-2.78076 2.875,-4.28125"
       id="path3704"
       sodipodi:nodetypes="cssc" />
    <path
       style="fill:#000000;fill-opacity:1;stroke:none"
       d="m 355.47584,195.14815 c 3.56108,-1.68505 5.237,-1.37002 8.59576,-0.70711 2.58698,0.51059 4.62966,1.0995 5.95549,2.86727 0.91242,1.21654 -0.60799,1.91329 -1.40349,0.94102 -0.79549,-0.97228 -3.46711,-1.97407 -5.30329,-2.2981 -2.25391,-0.39775 -3.29247,-0.7955 -6.76171,0.41983 -1.64315,0.57563 -2.72136,-0.44755 -1.08276,-1.22291 z"
       id="path3707"
       sodipodi:nodetypes="cssssss" />
    <path
       style="fill:#000000;fill-opacity:1;stroke:none"
       d="m 374.25,164.375 c 2.24561,-0.16282 4.06232,-1.79239 4.07322,0.80936 0.0202,4.81273 -1.82043,2.49887 -3.82322,2.56564 -2.19829,0.0733 -25.50719,-0.74281 -26.375,-1 -0.96624,-0.28636 -3.8173,-0.075 -3.4375,-1.9375 0.39917,-1.95752 1.63537,-1.23322 3.5,-1 2.68548,0.33588 22.87757,0.79343 26.0625,0.5625 z"
       id="path3709"
       sodipodi:nodetypes="cssssss" />
    <path
       id="path3714"
       transform="matrix(1.6871991,0,0,1.7897906,-253.28804,-87.985606)"
       style="fill:#000000;fill-opacity:1;fill-rule:evenodd;stroke:none"
       d="m 372.84284,111.11342 c 0,1.82944 -1.33305,3.38658 -3.30056,3.38658 -1.96751,0 -3.61489,-1.48306 -3.61489,-3.3125 0,-1.82944 1.5426,-3.26312 3.51011,-3.26312 1.96751,0 3.40534,1.3596 3.40534,3.18904 z m -1.02432,0.1963 c 0,1.19764 -1.07432,2.16853 -2.39957,2.16853 -1.32524,0 -2.39956,-0.97089 -2.39956,-2.16853 0,-1.19764 1.07432,-2.16852 2.39956,-2.16852 1.32525,0 2.39957,0.97088 2.39957,2.16852 z"
       sodipodi:nodetypes="csssscssss" />
    <path
       style="fill:#000000;fill-opacity:1;stroke:none"
       d="m 373.0625,166.25 c -1.38884,-7.62675 -3.02724,-33.31581 -3.44584,-46.75182 -0.0543,-1.74198 -0.91838,-1.66635 -1.55416,-0.24818 -4.04298,9.01829 -12.92199,31.1031 -17.5625,45.875 l -2.5,-0.25 c 6.25857,-17.05762 12.37597,-34.53877 19.625,-49.625 0.83726,1.00791 2.84582,1.28275 4,0.5 1.375,2.33333 -0.59192,22.21444 3.75,50.5"
       id="path3719"
       sodipodi:nodetypes="cssccccc" />
    <path
       style="fill:#000000;fill-opacity:1;stroke:none"
       d="m 362.75,128.64775 c 1.48741,3.4316 5.27064,7.0988 8.875,8.47725 l 0.0808,2.7045 c -3.93115,-2.19736 -7.51575,-3.67381 -10.08081,-9.73483"
       id="path3721"
       sodipodi:nodetypes="cccc" />
    <path
       style="fill:#000000;fill-opacity:1;stroke:none"
       d="m 358.38128,139.64905 c 4.10943,6.74858 8.55387,9.93286 14.20711,13.05806 l 0.16161,1.99111 c -6.4505,-2.36523 -12.15278,-7.10873 -15.05806,-13.33839"
       id="path3723"
       sodipodi:nodetypes="cccc" />
    <path
       style="fill:#000000;fill-opacity:1;stroke:none"
       d="m 354.21339,151.47855 c 4.47965,5.77491 7.07089,10.71368 16.16161,13.89645 l -4.38756,0.43306 c -8.10979,-4.1528 -10.31954,-9.21159 -12.50889,-13.15533"
       id="path3725"
       sodipodi:nodetypes="cccc" />
    <path
       style="fill:#000000;fill-opacity:1;stroke:none"
       d="m 371,129.375 c 0.7452,2.7532 6.04741,4.03392 8.96339,1.60983 3.91695,-3.25621 4.50155,-6.35045 3.09467,-9.71338 7.06435,0.803 12.205,-9.04522 4.625,-15.78662 8.76312,0.0871 6.48049,-17.821209 -4.85984,-13.829499 1.75883,-13.16304 -19.23156,-12.909416 -16.85983,-2.265165 -10.54866,-4.136137 -14.26072,9.202506 -9.48484,12.161614 -11.26593,-1.17656 -11.87252,15.87021 -1.875,16.10983 -3.22132,3.70592 -2.47696,12.94062 7.07323,13.53661 L 362.25,129.125 c -8.64597,-0.35665 -8.29895,-8.00404 -5.75,-9.75 1.63058,-1.1169 0.98567,-3.63599 -1,-3.875 -10.16737,-1.22384 -6.65817,-14.10831 2.5,-11.5 1.77502,0.50554 2.40242,-1.40584 1,-2.625 -6.49118,-5.642942 1.26243,-13.840058 6.375,-9.249999 1.19115,1.069416 3.5676,0.07476 2.875,-1.875 -1.8514,-5.211953 2.43114,-7.303802 6.60802,-6.507905 4.17688,0.795897 7.80617,4.567927 5.26698,9.757905 -0.91428,1.868748 0.69143,3.344315 1.81694,1.71967 3.08347,-4.450903 7.78704,-1.866577 8.75551,1.526477 0.91969,3.222115 0.49996,6.799352 -4.19745,6.644022 -1.64322,-0.0543 -2.58866,2.21969 -0.77773,3.58838 7.73429,5.84557 1.41986,15.01534 -4.61244,11.07323 -1.63449,-1.06815 -2.39288,0.82311 -1.49111,1.92677 5.91877,7.24394 -4.48704,13.9314 -8.20711,7.45451"
       id="path3727"
       sodipodi:nodetypes="csccccccccssssssssssssssc" />
    <path
       id="path3731"
       style="fill:#000000;fill-opacity:1;fill-rule:evenodd;stroke:none"
       d="m 357.70429,179.50066 c 0,4.38376 -3.56285,7.9375 -8.29179,7.9375 -4.72894,0 -8.52108,-3.92285 -8.52108,-7.75066 0,-4.38376 3.29216,-7.71197 8.0211,-7.71197 4.72894,0 8.79177,3.40507 8.79177,7.52513 z m -1.63974,0 c 0,3.13573 -2.58493,6.44524 -6.65203,6.44524 -3.78427,0 -6.82274,-2.75039 -6.82274,-6.2584 0,-3.50802 2.33849,-6.23105 6.12276,-6.23105 4.27922,0 7.35201,2.90848 7.35201,6.04421 z"
       transform="matrix(1.2500502,0,0,1.3380617,-87.220675,-60.557963)"
       sodipodi:nodetypes="csssscssss" />
    <path
       id="path3735"
       transform="matrix(0.99483974,0,0,1.0441452,23.490018,-6.119834)"
       style="fill:#000000;fill-opacity:1;fill-rule:evenodd;stroke:none"
       d="m 358.4893,179.6875 c -0.16157,4.20973 -4.33223,8.20621 -9.1768,8.02215 -4.80146,-0.18242 -8.75254,-3.60609 -8.74019,-8.02215 0.0123,-4.41042 3.76477,-8.55174 8.74019,-8.43088 4.99361,0.1213 9.33947,4.19232 9.1768,8.43088 z m 1.94052,-0.0599 c 0,5.37837 -4.92937,10.09724 -11.01007,10.09724 -6.0807,0 -10.79558,-4.42277 -10.79558,-10.13957 0,-5.71681 4.41916,-10.18915 10.49986,-10.18915 6.0807,0 11.30579,4.51467 11.30579,10.23148 z"
       sodipodi:nodetypes="csssscssss" />
    <path
       style="fill:#000000;fill-opacity:1;stroke:none"
       d="m 351.74242,165.53661 c -2.49409,2.16709 -2.18062,3.38908 -2.78661,4.83839 l -2.20451,0.33081 c 0.32548,-1.73527 1.01792,-3.47054 2.05048,-5.20581"
       id="path3743"
       sodipodi:nodetypes="cccc" />
    <path
       style="fill:#000000;fill-opacity:1;stroke:none"
       d="m 374.03033,166.57322 c 4.81694,4.125 7.52145,8.64017 7.52145,14.14017 0,5.5 -2.58839,14.55178 -6.33839,18.17678 -3.75,3.625 -5.46339,5.35983 -11.46339,5.35983 -6,0 -9.17687,-2.61374 -12.0821,-4.98483 -4.35079,-3.55087 -4.82644,-7.29965 -5.05807,-10.60356 l -1.59466,-0.43306 c -0.21829,2.82484 0.66422,7.5706 3.47855,10.35983 2.82576,2.80057 7.02145,7.64645 15.77145,7.64645 8.75,0 13.13128,-6.89644 15.25628,-10.52144 2.125,-3.625 3.85974,-9.58843 3.83838,-15.08839 -0.0244,-6.28862 -4.80279,-12.76168 -6.85983,-14.125"
       id="path3745"
       sodipodi:nodetypes="cssssccssssc" />
    <path
       id="path3750"
       style="fill:#000000;fill-opacity:1;fill-rule:evenodd;stroke:none"
       d="m 372.6875,210.5625 c 4.43108,7.80346 6.8553,12.9244 5.08395,30.88572 -1.79879,18.32784 -5.27145,22.67678 -8.14645,24.92678 -2.875,2.25 -8.17678,3.23483 -12.92678,1.48483 -4.75,-1.75 -7.7045,-3.48483 -8.8295,-9.73483 -1.125,-6.25 -0.74503,-20.37855 2.10983,-31.28661 1.82512,-6.97357 2.33185,-11.58833 4.85984,-15.46339 4.70018,-7.20474 13.01267,-7.76157 17.84911,-0.8125 z m -0.8125,2.1875 c 4.05965,6.15062 5.16776,13.94741 3.625,29.375 -1.125,11.25 -1.21554,15.58415 -4.94822,20.25 -3,3.75 -5.97394,5.2799 -11.83839,3.96339 -6.125,-1.375 -8.46339,-3.83839 -9.08839,-8.96339 -0.625,-5.125 -1.47519,-15.30544 1,-24.875 2.89645,-11.19822 2.26671,-15.63724 5.75,-19.875 3.39733,-4.13318 9.32205,-9.23498 15.5,0.125 z"
       sodipodi:nodetypes="ccsssssccssssssc" />
    <path
       style="fill:#000000;fill-opacity:1;stroke:none"
       d="m 370.97034,220.4348 c 2.03276,5.98072 0.87316,23.8068 0.16608,25.04424 -0.7071,1.23743 -1.82355,-0.46481 -1.58471,-1.35616 0.73241,-2.73339 1.18566,-15.48757 -0.13568,-23.00242 -0.24682,-1.40368 1.22034,-1.66846 1.55438,-0.68566 l -7e-5,0 z"
       id="path3752"
       sodipodi:nodetypes="cssssc" />
    <path
       style="fill:#000000;fill-opacity:1;stroke:none"
       d="m 371.18687,243.85771 c 0.92807,1.32583 1.26018,3.21624 1.32583,3.88909 0.17677,1.81196 -1.17872,1.7722 -1.21535,0.95017 -0.0955,-2.14259 -0.3327,-2.75839 -1.08276,-3.55763"
       id="path3755"
       sodipodi:nodetypes="cssc" />
    <path
       style="fill:#000000;fill-opacity:1;stroke:none"
       d="m 370.78125,244.625 c 1.125,2.53125 -0.42603,5.38366 -1.22633,6.17678 -1.40114,1.38857 -3.01133,0.10678 -1.52367,-1.33303 0.8208,-0.7944 1.76651,-3.16867 1.875,-4.9375"
       id="path3757"
       sodipodi:nodetypes="cssc" />
    <path
       style="fill:#000000;fill-opacity:1;stroke:none"
       d="m 370.3645,245.67998 c -2.38752,-0.16224 -3.43741,-0.26406 -4.51874,-0.10267 -1.69686,0.25324 -2.21447,-1.64845 -0.92211,-2.01556 1.3506,-0.38366 2.98341,-0.37708 5.45944,0.45565"
       id="path3759"
       sodipodi:nodetypes="cssc" />
    <path
       style="fill:#000000;fill-opacity:1;stroke:#000000;stroke-width:0.1;stroke-linecap:butt;stroke-linejoin:miter;stroke-miterlimit:4;stroke-opacity:1;stroke-dasharray:none"
       d="m 111.1875,272.65625 c -0.41085,14 -0.008,42.63073 0.68626,46.24317 0.23883,1.24279 0.94194,2.99448 -1.5651,2.84359 -1.94304,-0.11694 -10.370578,-0.32679 -11.427987,-0.40977 -3.185661,-0.25 -0.75,-2.38204 1.086548,-2.16866 1.144739,0.133 7.689789,0.26517 8.308509,0.26517 0.61871,0 1.22209,-0.44572 1.14904,-1.14905 -0.43694,-4.20711 -1.30357,-36.11575 -0.35355,-46.66905"
       id="path3762"
       sodipodi:nodetypes="cssssssc" />
    <path
       style="fill:#000000;fill-opacity:1;stroke:#000000;stroke-width:0.1;stroke-linecap:butt;stroke-linejoin:miter;stroke-miterlimit:4;stroke-opacity:1;stroke-dasharray:none"
       d="m 124.75,271.1875 c -1.09026,16.25681 3,43.1875 6.625,48.0625 0.86984,1.16978 0.5,2.8125 -1.375,2.8125 -1.875,0 -11.36823,-0.0814 -12.5,-0.0625 -3.8125,0.0625 -0.4375,-2.75 2.0625,-2.5625 1.9944,0.14958 6.9375,0 7.5625,0 0.625,0 1.31927,-0.66213 1,-1.4375 -2.625,-6.375 -6.55554,-32.46879 -5.125,-45.75"
       id="path3766"
       sodipodi:nodetypes="cssssssc" />
    <path
       style="fill:#000000;fill-opacity:1;stroke:none"
       d="m 186.52145,269.875 c 1.17753,14.44017 -1.52464,48.67087 -1.52464,49.73153 0,1.06066 0.0669,2.12132 1.23744,2.2097 0.79811,0.0603 9.03632,0.35327 10.18871,0.36428 2.71155,0.0259 6.0052,2.09987 2.09727,2.21415 -2.03973,0.0597 -13.52342,-0.19194 -14.76086,-0.19194 -1.61243,0 -1.59098,-1.94454 -1.23743,-3.18198 0.35355,-1.23744 2.85859,-29.98593 2.03293,-52.56074"
       id="path3770"
       sodipodi:nodetypes="cssssssc" />
    <path
       style="fill:#000000;fill-opacity:1;stroke:none"
       d="m 197.37118,268.78323 c 4.54381,21.86792 6.05763,36.02127 6.8059,49.40908 0.0594,1.06268 1.06067,2.82844 2.12132,2.82844 1.06066,0 9.62573,-0.0615 11.22533,10e-6 2.29809,0.0884 2.56325,2.20971 0.88387,2.20971 -1.67938,0 -12.19759,0 -13.52341,0 -2.2981,0 -2.57789,-1.57721 -2.74004,-3.18198 -0.79486,-7.86656 -0.688,-24.3068 -6.71751,-49.76264"
       id="path3772"
       sodipodi:nodetypes="cssssssc" />
    <path
       style="fill:#000000;stroke:none;stroke-width:0.10000000000000001;stroke-linecap:butt;stroke-linejoin:miter;stroke-opacity:1;stroke-miterlimit:4;stroke-dasharray:none;fill-opacity:1"
       d="m 285.43278,267.15562 c -6.07212,15.00928 -8.33229,41.35527 -3.84439,51.16067 0.75355,1.64641 0.92807,2.19888 -0.64645,2.19888 -1,0 -7.19286,0.0606 -8.31694,0.0152 -2.18566,-0.0884 -3.92417,2 -1.54917,2.375 2.375,0.375 11.42417,0.34467 12.79917,0.34467 1.375,0 1.88694,-1.56349 0.68934,-3.70711 -5.68274,-10.17166 -1.72826,-39.03638 2.06066,-50.41789"
       id="path3774"
       sodipodi:nodetypes="cssssssc" />
    <path
       style="fill:#000000;stroke:none;stroke-width:0.10000000000000001;stroke-linecap:butt;stroke-linejoin:miter;stroke-opacity:1;stroke-miterlimit:4;stroke-dasharray:none;fill-opacity:1"
       d="m 300.35877,270.90455 c -2.09112,22.01078 2.91948,43.21799 6.89429,49.05553 0.77388,1.13655 1.23744,3.81586 -0.97227,3.81586 -2.20971,0 -11.15415,-0.31349 -13.27342,-0.44194 -2.91682,-0.17679 -1.94454,-2.3802 -0.17679,-2.46859 1.76776,-0.0884 8.75096,0.0581 9.63433,0.0884 1.82138,0.0625 2.25703,-0.13481 1.6642,-1.5026 -0.50327,-1.16116 -9.33692,-22.47755 -5.65685,-47.75116"
       id="path3776"
       sodipodi:nodetypes="cssssssc" />
    <path
       style="fill:#000000;stroke:none;stroke-width:0.10000000000000001;stroke-linecap:butt;stroke-linejoin:miter;stroke-opacity:1;stroke-miterlimit:4;stroke-dasharray:none;fill-opacity:1"
       d="m 353.96339,265.83839 c -0.99003,18.85838 -1.31694,40.50323 -0.21339,53.66161 0.20815,2.48189 0.5,3.625 -1,3.875 -1.5,0.25 -11.9799,-0.1913 -13.48483,-0.21967 -1.85355,-0.0366 -2.56695,-2.39645 -0.48484,-2.35984 1.38046,0.0243 10.43306,-0.0518 11.43306,-0.0518 1,0 1.15919,-0.75224 1.125,-1.66161 -0.777,-20.66787 -1.03505,-42.91092 0.76517,-54.28033"
       id="path3778"
       sodipodi:nodetypes="cssssssc" />
    <path
       style="fill:#000000;stroke:none;stroke-width:0.10000000000000001;stroke-linecap:butt;stroke-linejoin:miter;stroke-opacity:1;stroke-miterlimit:4;stroke-dasharray:none;fill-opacity:1"
       d="m 367.25,266.5 c -0.0742,24.49513 2.32594,46.45616 7.75,51.875 2.45495,2.45258 1.25,4.625 -0.75,4.625 -2,0 -12,-0.25 -14,-0.25 -2,0 -2.57322,-2.46967 -0.32322,-2.46967 2.25,0 9.875,0 10.875,0 1,0 2.19262,-0.41532 1.5,-1.5 -6.625,-10.375 -7.02215,-34.16594 -7.55178,-51.34283"
       id="path3780"
       sodipodi:nodetypes="cssssssc" />
    <path
       style="fill:#000000;stroke:none;stroke-width:0.10000000000000001;stroke-linecap:butt;stroke-linejoin:miter;stroke-opacity:1;stroke-miterlimit:4;stroke-dasharray:none;fill-opacity:1"
       d="m 184.15712,68.583618 c 1.85847,1.689641 0.0442,3.800699 -1.10485,2.474874 -1.14905,-1.325825 -4.02655,-3.835185 -8.26432,-1.546796 -2.2097,1.193241 -2.57987,2.474716 -2.33124,3.469243 0.43481,1.739232 2.54992,2.2283 4.54095,2.320194 4.81579,0.222268 7.20365,3.226174 6.93849,6.187184 -0.20633,2.304125 -2.96101,5.126525 -6.62912,4.286835 -3.78809,-0.867153 -3.75651,-2.65165 -3.49135,-3.447145 0.26517,-0.795496 1.63519,-1.281632 3.0494,-0.0442 1.36971,1.198497 4.16104,1.591223 4.24264,-0.883883 0.13259,-4.02167 -4.04875,-2.565633 -7.82236,-4.198447 -4.59619,-1.988738 -3.99742,-6.248005 -1.50261,-8.573669 2.60746,-2.43068 7.77872,-4.222362 12.37437,-0.04419 z"
       id="path3782"
       sodipodi:nodetypes="cssssssssssss" />
    <path
       style="fill:#000000;stroke:none;stroke-width:0.10000000000000001;stroke-linecap:butt;stroke-linejoin:miter;stroke-opacity:1;stroke-miterlimit:4;stroke-dasharray:none;fill-opacity:1"
       d="m 189.78051,75.384159 c -0.11129,-2.740497 2.20497,-2.676825 2.23023,-0.988356 0.0518,3.460628 0.11336,5.776492 0.33211,7.674621 0.19227,1.668336 -1.64482,2.38595 -2.00613,0.618718 -0.50107,-2.450841 -0.48992,-5.672516 -0.55621,-7.304983 z"
       id="path3784"
       sodipodi:nodetypes="cssss" />
    <path
       style="fill:#000000;stroke:none;stroke-width:0.10000000000000001;stroke-linecap:butt;stroke-linejoin:miter;stroke-miterlimit:4;stroke-opacity:1;stroke-dasharray:none;fill-opacity:1"
       d="m 189.13637,68.974763 c -0.0352,-1.163921 1.94845,-1.854995 2.25,-0.5 0.10964,0.492642 0.15544,1.411724 0.125,1.771446 -0.11403,1.347355 -2.09454,1.40314 -2.25,0.385723 -0.0876,-0.573091 -0.0983,-0.77548 -0.125,-1.657169 z"
       id="path3786"
       sodipodi:nodetypes="cssss" />
    <path
       style="fill:#000000;stroke:none;stroke-width:0.10000000000000001;stroke-linecap:butt;stroke-linejoin:miter;stroke-opacity:1;stroke-miterlimit:4;stroke-dasharray:none;fill-opacity:1"
       d="m 200.13572,70.6875 c -0.0558,-2.446607 -2.44822,-2.821852 -2.44822,-0.9375 0,2.25 0.28325,8.998934 0.25,10.3125 -0.0625,2.46875 0.875,3 2.125,2.8125 1.25,-0.1875 8.32384,-0.728578 9.5,-1 1.625,-0.375 1.11738,-2.739264 -1,-2.683058 -1.93786,0.04997 -5.43578,0.791187 -6.4375,0.8125 -1.46875,0.03125 -1.67678,-0.223192 -1.73928,-2.629442 -0.039,-1.500795 -0.20738,-4.817168 -0.25,-6.6875 z"
       id="path3788"
       sodipodi:nodetypes="cssssssss" />
    <path
       style="fill:#000000;stroke:none;stroke-width:0.10000000000000001;stroke-linecap:butt;stroke-linejoin:miter;stroke-opacity:1;stroke-miterlimit:4;stroke-dasharray:none;fill-opacity:1"
       d="m 212.66236,69.732667 c -0.0236,-2.829004 2.45502,-2.502853 2.78423,-0.132583 0.22098,1.590991 0.41906,5.008532 0.39239,6.380427 -0.0525,2.700826 0.35893,3.474874 1.50797,3.563262 1.14905,0.08839 7.85047,-0.104473 9.72271,0 1.59829,0.08919 2.38466,2.343952 0,2.651651 -2.74003,0.353554 -10.37508,-0.05586 -11.49048,-0.132583 -1.73253,-0.119178 -1.85616,-0.441941 -2.20971,-1.679378 -0.35355,-1.237437 -0.68411,-7.892055 -0.70711,-10.650796 z"
       id="path3790"
       sodipodi:nodetypes="cssssssss" />
    <path
       style="fill:#000000;stroke:none;stroke-width:0.10000000000000001;stroke-linecap:butt;stroke-linejoin:miter;stroke-opacity:1;stroke-miterlimit:4;stroke-dasharray:none;fill-opacity:1"
       d="m 244.43798,71.633016 c 1.03546,-2.061097 -0.93122,-3.270368 -1.81511,-1.635184 -0.88388,1.635184 -1.54365,3.049398 -2.60431,5.966214 -1.32787,3.651633 -0.8958,4.466246 -1.94454,9.32497 -0.4964,2.299729 2.09379,3.127842 2.51906,0.618719 0.44194,-2.607457 0.7513,-6.540738 1.41422,-8.57367 0.66291,-2.032932 1.33579,-3.52167 2.43068,-5.701049 z"
       id="path3792"
       sodipodi:nodetypes="cssssss" />
    <path
       style="fill:#000000;stroke:none;stroke-width:0.10000000000000001;stroke-linecap:butt;stroke-linejoin:miter;stroke-opacity:1;stroke-miterlimit:4;stroke-dasharray:none;fill-opacity:1"
       d="m 241.40625,75.65625 c -5.25,-0.9375 -8.21875,-3.875 -9.34375,-5.09375 -1.125,-1.21875 -3.31221,-0.09399 -1.84375,1.71875 1.46833,1.812584 5.81372,4.324756 10.4375,5.78125"
       id="path3794"
       sodipodi:nodetypes="cssc" />
    <path
       style="fill:#000000;stroke:none;stroke-width:0.10000000000000001;stroke-linecap:butt;stroke-linejoin:miter;stroke-opacity:1;stroke-miterlimit:4;stroke-dasharray:none;fill-opacity:1"
       d="m 179.75,96.6875 c -0.42051,-1.853766 1.78103,-2.378383 2.375,-0.25 0.75,2.6875 1.6875,10.375 1.8125,13.9375 0.0508,1.44879 -2.68052,2.50781 -2.75,0.5625 -0.125,-3.5 -0.29876,-9.23006 -1.4375,-14.25 z"
       id="path3796"
       sodipodi:nodetypes="cssss" />
    <path
       style="fill:#000000;stroke:none;stroke-width:0.10000000000000001;stroke-linecap:butt;stroke-linejoin:miter;stroke-opacity:1;stroke-miterlimit:4;stroke-dasharray:none;fill-opacity:1"
       d="m 190.8125,96.4375 c 0.004,-1.837909 2.45876,-2.44068 2.5,-0.25 0.0625,3.319923 0.72761,7.61858 1,12 0.15261,2.45481 -2.391,3.20165 -2.4375,1.0625 -0.125,-5.75 -1.07285,-8.02183 -1.0625,-12.8125 z"
       id="path3798"
       sodipodi:nodetypes="cssss" />
    <path
       style="fill:#000000;stroke:none;stroke-width:0.10000000000000001;stroke-linecap:butt;stroke-linejoin:miter;stroke-opacity:1;stroke-miterlimit:4;stroke-dasharray:none;fill-opacity:1"
       d="m 192.3125,101.92678 c -5.92616,0.90823 -9.43782,0.43765 -10.75,0.4375 -1.3125,-1.5e-4 -1.49946,2.24971 -0.125,2.32322 1.35967,0.0727 4.91598,0.97268 11.25,-0.4375"
       id="path3800"
       sodipodi:nodetypes="cssc" />
    <path
       style="fill:#000000;stroke:none;stroke-width:0.10000000000000001;stroke-linecap:butt;stroke-linejoin:miter;stroke-opacity:1;stroke-miterlimit:4;stroke-dasharray:none;fill-opacity:1"
       d="m 198.0625,107.6875 c 0.93309,-1.63978 3.7749,-8.730698 3.96875,-9.59375 0.35881,-1.597473 2.61491,-1.632878 2.21875,0.0625 -0.46712,1.99905 -3.12805,8.93339 -4.65625,10.65625 -0.83978,0.94675 -2.38418,0.37391 -1.53125,-1.125 z"
       id="path3802"
       sodipodi:nodetypes="cssss" />
    <path
       style="fill:#000000;stroke:none;stroke-width:0.10000000000000001;stroke-linecap:butt;stroke-linejoin:miter;stroke-opacity:1;stroke-miterlimit:4;stroke-dasharray:none;fill-opacity:1"
       d="m 204.4375,96.34375 c -0.42412,-0.93953 -3.375,-0.875 -1.875,1.46875 0.93443,1.460044 3.09375,6.5 5.9375,10.84375 0.60951,0.93101 2.68018,-0.0219 1.5,-1.84375 -2.72456,-4.20591 -4.5939,-8.323093 -5.5625,-10.46875 z"
       id="path3804"
       sodipodi:nodetypes="cssss" />
    <path
       style="fill:#000000;stroke:none;stroke-width:0.10000000000000001;stroke-linecap:butt;stroke-linejoin:miter;stroke-opacity:1;stroke-miterlimit:4;stroke-dasharray:none;fill-opacity:1"
       d="m 201.5625,102.40625 c 1.56377,0.34095 3.08037,0.30513 4.5625,0.15625 l 1.25,2.34375 c -2.22072,0.22582 -4.47724,0.201 -6.78125,-0.15625"
       id="path3806"
       sodipodi:nodetypes="cccc" />
    <path
       style="fill:#000000;stroke:none;stroke-width:0.10000000000000001;stroke-linecap:butt;stroke-linejoin:miter;stroke-opacity:1;stroke-miterlimit:4;stroke-dasharray:none;fill-opacity:1"
       d="m 212.3125,95.4375 c -1.92693,0.08251 -1.76963,2.465128 -0.375,2.375 1.375,-0.08886 9.09843,-0.255607 11.9375,-0.5625 2.03543,-0.220022 1.4375,-2.6875 -1,-2.4375 -1.99053,0.204157 -8.85131,0.551726 -10.5625,0.625 z"
       id="path3808"
       sodipodi:nodetypes="cssss" />
    <path
       style="fill:#000000;stroke:none;stroke-width:0.10000000000000001;stroke-linecap:butt;stroke-linejoin:miter;stroke-opacity:1;stroke-miterlimit:4;stroke-dasharray:none;fill-opacity:1"
       d="m 216.78125,96.40625 c -0.0415,-1.58306 2.77116,-2.130794 2.6875,-0.625 -0.0937,1.6875 -0.30328,6.77122 0.5084,11.63258 0.30346,1.81749 -2.01465,2.00355 -2.33915,-0.0947 -0.4634,-2.99632 -0.82381,-9.655136 -0.85675,-10.91291 z"
       id="path3810"
       sodipodi:nodetypes="cssss" />
    <path
       style="fill:#000000;stroke:none;stroke-width:0.10000000000000001;stroke-linecap:butt;stroke-linejoin:miter;stroke-opacity:1;stroke-miterlimit:4;stroke-dasharray:none;fill-opacity:1"
       d="m 241.74213,96.867889 c -1.36809,-2.015033 -6.31977,-4.065863 -8.70625,-2.298096 -2.38649,1.767767 -3.84489,5.922017 -0.66291,7.954947 3.18198,2.03293 5.92957,1.89916 4.90555,4.11006 -1.17147,2.52927 -3.91022,1.86707 -4.86136,0 -1.19325,-2.34229 -3.49134,-0.53033 -2.51907,1.41422 0.97227,1.94454 4.54735,4.52965 8.22012,1.67937 3.70152,-2.87259 1.50045,-6.98092 -0.57453,-7.46881 -3.55203,-0.8352 -6.17576,-2.73723 -3.53553,-5.038137 2.31647,-2.018757 4.06587,-0.707106 6.0546,1.237437 1.52856,1.494599 2.49388,-0.391339 1.67938,-1.590991 z"
       id="path3812"
       sodipodi:nodetypes="cssssssssss" />
    <path
       id="path3816"
       transform="matrix(1.5698422,0,0,1.5080009,-103.00233,-65.755124)"
       style="fill:#000000;stroke:none;stroke-width:0.06499369000000001;stroke-miterlimit:4;stroke-opacity:1;fill-opacity:1;fill-rule:evenodd"
       d="m 184.38202,129.439 c 0,2.70926 -1.6857,4.75902 -4.07766,4.75902 -2.39196,0 -4.38733,-2.16699 -4.38733,-4.87625 0,-2.70927 1.82646,-4.70041 4.21842,-4.70041 2.39196,0 4.24657,2.10837 4.24657,4.81764 z m -1.23463,0 c -0.0766,1.55732 -1.21906,2.98881 -2.73042,3.16509 -1.59384,0.18591 -3.09377,-1.53614 -3.04009,-3.16509 0.0591,-1.79555 1.17287,-3.34094 2.75857,-3.34094 1.58571,0 3.10021,1.54669 3.01194,3.34094 z" />
    <path
       style="fill:#000000;stroke:none;stroke-width:0.10000000000000001;stroke-linecap:butt;stroke-linejoin:miter;stroke-opacity:1;stroke-miterlimit:4;stroke-dasharray:none;fill-opacity:1"
       d="m 188.875,132.4375 c 0.0945,-2.29074 0,-7.875 0,-9.0625 0,-1.1875 1.5,-1.75 2.375,-0.8125 0.875,0.9375 9.875,8.375 9.875,8.375 0.1691,-3.13014 0.0864,-5.70132 -0.63572,-9.5 C 200.20314,119.93224 202.625,119 203,121 c 0.375,2 1.3125,9.8125 1.375,11.5 0.0625,1.6875 -1.67051,1.94558 -3.5,0.9375 -2.97623,-1.63995 -5.68711,-4.74921 -9.4375,-7.5 -0.31186,2.41355 -0.13895,5.4742 0.0625,6.875 0.26659,1.8537 -2.75219,2.70811 -2.625,-0.375 z"
       id="path3820"
       sodipodi:nodetypes="csscsssscss" />
    <path
       style="fill:#000000;stroke:none;stroke-width:0.10000000000000001;stroke-linecap:butt;stroke-linejoin:miter;stroke-opacity:1;stroke-miterlimit:4;stroke-dasharray:none;fill-opacity:1"
       d="m 208.625,121.6875 c -0.11586,-2.08209 2.52589,-2.5625 2.71339,-0.5625 0.1875,2 0.35103,7.205 0.34911,8.3125 -0.004,2.18566 0.0947,2.36742 1.625,2.4375 1.0009,0.0458 6.9375,0.1875 8,0.1875 1.9375,0 2.1875,2.625 0,2.6875 -2.1875,0.0625 -8.875,-0.1875 -10.1875,-0.25 -1.3125,-0.0625 -2.0625,-0.4375 -2.125,-1.875 -0.0625,-1.4375 -0.16991,-7.25185 -0.375,-10.9375 z"
       id="path3822"
       sodipodi:nodetypes="cssssssss" />
    <path
       style="fill:#000000;stroke:none;stroke-width:0.10000000000000001;stroke-linecap:butt;stroke-linejoin:miter;stroke-opacity:1;stroke-miterlimit:4;stroke-dasharray:none;fill-opacity:1"
       d="m 236.4375,121.75 c 0.7193,-1.73937 2.8125,-1.75 2.1875,0.6875 -0.625,2.4375 -1.0625,3.1875 -1.4375,4.8125 -0.375,1.625 -0.71339,5.80936 -1.02589,6.74686 -0.625,1.875 -2.51777,1.88815 -2.4375,-0.25 0.0827,-2.20301 0.71339,-6.12186 1.15089,-7.30936 0.4375,-1.1875 0.67724,-2.54683 1.5625,-4.6875 z"
       id="path3824"
       sodipodi:nodetypes="cssssss" />
    <path
       style="fill:#000000;stroke:none;stroke-width:0.10000000000000001;stroke-linecap:butt;stroke-linejoin:miter;stroke-opacity:1;stroke-miterlimit:4;stroke-dasharray:none;fill-opacity:1"
       d="m 235.77592,126.35299 c -4.12763,-1.36416 -6.90165,-4.48152 -8.18351,-5.48009 -1.54619,-1.20448 -2.79002,0.1132 -1.98116,1.40664 0.88999,1.42324 4.27655,4.66958 9.59014,6.40815"
       id="path3826"
       sodipodi:nodetypes="cssc" />
    <path
       style="fill:#000000;stroke:none;stroke-width:0.10000000000000001;stroke-linecap:butt;stroke-linejoin:miter;stroke-opacity:1;stroke-miterlimit:4;stroke-dasharray:none;fill-opacity:1"
       d="m 183.71967,138.61872 c -2.42492,0.36 -3.09835,3.04289 0.66421,2.66789 4.98933,-0.49726 8.46206,-1.03133 22.92678,-0.91161 9.87454,0.0817 13.59236,0.0172 24.35095,-0.625 1.86758,-0.11149 1.98793,-2.02766 0.57232,-2.22364 -0.6994,-0.0968 -1.14099,0.002 -2.72137,-0.0339 -4.32227,-0.0995 -15.19562,0.47097 -22.82062,0.34597 -7.625,-0.125 -16.6333,-0.16074 -22.97227,0.78033 l 0,-4e-5 z"
       id="path3829"
       sodipodi:nodetypes="csssssssc" />
  </g>
</svg>
